solid OpenSCAD_Model
  facet normal -1 0 0
    outer loop
      vertex 0 28 0
      vertex 0 0 0
      vertex 0 0 6.21725e-15
    endloop
  endfacet
  facet normal -1 -0 0
    outer loop
      vertex 0 1.33227e-15 6
      vertex 0 0 6.21725e-15
      vertex 0 0 6
    endloop
  endfacet
  facet normal 0 0 1
    outer loop
      vertex 43.1981 10.8678 6
      vertex 28.2709 11.9602 6
      vertex 28.5 10 6
    endloop
  endfacet
  facet normal 0 0 1
    outer loop
      vertex 35 20 6
      vertex 27.5959 13.8148 6
      vertex 28.2709 11.9602 6
    endloop
  endfacet
  facet normal 0 0 1
    outer loop
      vertex 25.0758 16.818 6
      vertex 35 20 6
      vertex 27 28 6
    endloop
  endfacet
  facet normal 0 0 1
    outer loop
      vertex 35 20 6
      vertex 26.5114 15.4637 6
      vertex 27.5959 13.8148 6
    endloop
  endfacet
  facet normal 0 0 1
    outer loop
      vertex 35 20 6
      vertex 25.0758 16.818 6
      vertex 26.5114 15.4637 6
    endloop
  endfacet
  facet normal 0 0 1
    outer loop
      vertex 27 28 6
      vertex 23.3667 17.8048 6
      vertex 25.0758 16.818 6
    endloop
  endfacet
  facet normal 0 0 1
    outer loop
      vertex 27 28 6
      vertex 21.476 18.3709 6
      vertex 23.3667 17.8048 6
    endloop
  endfacet
  facet normal 0 0 1
    outer loop
      vertex 27 28 6
      vertex 19.5058 18.4856 6
      vertex 21.476 18.3709 6
    endloop
  endfacet
  facet normal 0 0 1
    outer loop
      vertex 27 28 6
      vertex 17.5622 18.1429 6
      vertex 19.5058 18.4856 6
    endloop
  endfacet
  facet normal -0 0 1
    outer loop
      vertex 0 28 6
      vertex 17.5622 18.1429 6
      vertex 27 28 6
    endloop
  endfacet
  facet normal 0 0 1
    outer loop
      vertex 17.5622 18.1429 6
      vertex 0 28 6
      vertex 15.75 17.3612 6
    endloop
  endfacet
  facet normal 0 0 1
    outer loop
      vertex 11.5575 10.9868 6
      vertex 11.5 10 6
      vertex 11.5575 10 6
    endloop
  endfacet
  facet normal 0 0 1
    outer loop
      vertex 6.24698 8.43634 6
      vertex 11.5 10 6
      vertex 7 10 6
    endloop
  endfacet
  facet normal 0 0 1
    outer loop
      vertex 11.5575 10.9868 6
      vertex 7 10 6
      vertex 11.5 10 6
    endloop
  endfacet
  facet normal -0 0 1
    outer loop
      vertex 6.24698 11.5637 6
      vertex 11.5575 10.9868 6
      vertex 12.0126 12.9072 6
    endloop
  endfacet
  facet normal 0 0 1
    outer loop
      vertex 6.24698 11.5637 6
      vertex 12.0126 12.9072 6
      vertex 12.8984 14.6708 6
    endloop
  endfacet
  facet normal 0 0 1
    outer loop
      vertex 0 28 6
      vertex 12.8984 14.6708 6
      vertex 14.1669 16.1827 6
    endloop
  endfacet
  facet normal 0 0 1
    outer loop
      vertex 15.75 17.3612 6
      vertex 0 28 6
      vertex 14.1669 16.1827 6
    endloop
  endfacet
  facet normal 0 0 1
    outer loop
      vertex 11.5575 10.9868 6
      vertex 6.24698 11.5637 6
      vertex 7 10 6
    endloop
  endfacet
  facet normal 0 0 1
    outer loop
      vertex 12.8984 14.6708 6
      vertex 0 28 6
      vertex 4.55496 11.9499 6
    endloop
  endfacet
  facet normal 0 0 1
    outer loop
      vertex 0 1.33227e-15 6
      vertex 3.19806 10.8678 6
      vertex 0 28 6
    endloop
  endfacet
  facet normal 0 0 1
    outer loop
      vertex 4.55496 11.9499 6
      vertex 0 28 6
      vertex 3.19806 10.8678 6
    endloop
  endfacet
  facet normal 0 0 1
    outer loop
      vertex 12.8984 14.6708 6
      vertex 4.55496 11.9499 6
      vertex 6.24698 11.5637 6
    endloop
  endfacet
  facet normal 0 0 1
    outer loop
      vertex 11.5 10 6
      vertex 6.24698 8.43634 6
      vertex 11.5 0 6
    endloop
  endfacet
  facet normal -0 0 1
    outer loop
      vertex 4.55496 8.05014 6
      vertex 11.5 0 6
      vertex 6.24698 8.43634 6
    endloop
  endfacet
  facet normal 0 0 1
    outer loop
      vertex 0 1.33227e-15 6
      vertex 4.55496 8.05014 6
      vertex 3.19806 9.13223 6
    endloop
  endfacet
  facet normal 0 0 1
    outer loop
      vertex 3.19806 10.8678 6
      vertex 0 1.33227e-15 6
      vertex 3.19806 9.13223 6
    endloop
  endfacet
  facet normal 0 0 1
    outer loop
      vertex 4.55496 8.05014 6
      vertex 0 1.33227e-15 6
      vertex 11.5 0 6
    endloop
  endfacet
  facet normal 0 0 1
    outer loop
      vertex 11.5 0 6
      vertex 0 1.33227e-15 6
      vertex 0 0 6
    endloop
  endfacet
  facet normal 0 0 1
    outer loop
      vertex 50 20 6
      vertex 47 10 6
      vertex 50 0 6
    endloop
  endfacet
  facet normal 0 0 1
    outer loop
      vertex 50 20 6
      vertex 46.247 11.5637 6
      vertex 47 10 6
    endloop
  endfacet
  facet normal 0 0 1
    outer loop
      vertex 50 20 6
      vertex 44.555 11.9499 6
      vertex 46.247 11.5637 6
    endloop
  endfacet
  facet normal -0 0 1
    outer loop
      vertex 35 20 6
      vertex 44.555 11.9499 6
      vertex 50 20 6
    endloop
  endfacet
  facet normal -0 0 1
    outer loop
      vertex 28.2709 11.9602 6
      vertex 43.1981 10.8678 6
      vertex 35 20 6
    endloop
  endfacet
  facet normal 0 0 1
    outer loop
      vertex 44.555 11.9499 6
      vertex 35 20 6
      vertex 43.1981 10.8678 6
    endloop
  endfacet
  facet normal -0 0 1
    outer loop
      vertex 46.247 8.43634 6
      vertex 50 0 6
      vertex 47 10 6
    endloop
  endfacet
  facet normal -0 0 1
    outer loop
      vertex 44.555 8.05014 6
      vertex 50 0 6
      vertex 46.247 8.43634 6
    endloop
  endfacet
  facet normal 0 0 1
    outer loop
      vertex 28.5 0 6
      vertex 44.555 8.05014 6
      vertex 43.1981 9.13223 6
    endloop
  endfacet
  facet normal 0 0 1
    outer loop
      vertex 43.1981 10.8678 6
      vertex 28.5 10 6
      vertex 43.1981 9.13223 6
    endloop
  endfacet
  facet normal 0 0 1
    outer loop
      vertex 28.5 0 6
      vertex 43.1981 9.13223 6
      vertex 28.5 10 6
    endloop
  endfacet
  facet normal 0 0 1
    outer loop
      vertex 44.555 8.05014 6
      vertex 28.5 0 6
      vertex 50 0 6
    endloop
  endfacet
  facet normal 1 -0 0
    outer loop
      vertex 50 0 6
      vertex 50 20 0
      vertex 50 20 6
    endloop
  endfacet
  facet normal 1 0 0
    outer loop
      vertex 50 20 0
      vertex 50 0 6
      vertex 50 0 0
    endloop
  endfacet
  facet normal 0 1 -0
    outer loop
      vertex 50 20 0
      vertex 35 20 6
      vertex 50 20 6
    endloop
  endfacet
  facet normal 0 1 0
    outer loop
      vertex 35 20 6
      vertex 50 20 0
      vertex 35 20 0
    endloop
  endfacet
  facet normal 0 0 -1
    outer loop
      vertex 7.94439 8.10776 0
      vertex 13.9 10 0
      vertex 13.9 0 0
    endloop
  endfacet
  facet normal -0 0 -1
    outer loop
      vertex 13.9 10 0
      vertex 7.94439 8.10776 0
      vertex 8.5 10 0
    endloop
  endfacet
  facet normal 0 0 -1
    outer loop
      vertex 13.9 0 0
      vertex 6.45395 6.81629 0
      vertex 7.94439 8.10776 0
    endloop
  endfacet
  facet normal 0 0 -1
    outer loop
      vertex 0 0 0
      vertex 6.45395 6.81629 0
      vertex 13.9 0 0
    endloop
  endfacet
  facet normal 0 0 -1
    outer loop
      vertex 6.45395 6.81629 0
      vertex 0 0 0
      vertex 4.5019 6.53562 0
    endloop
  endfacet
  facet normal -0 0 -1
    outer loop
      vertex 1.64177 9.01394 0
      vertex 0 0 0
      vertex 1.64177 10.9861 0
    endloop
  endfacet
  facet normal -0 0 -1
    outer loop
      vertex 2.70799 7.35488 0
      vertex 0 0 0
      vertex 1.64177 9.01394 0
    endloop
  endfacet
  facet normal -0 0 -1
    outer loop
      vertex 4.5019 6.53562 0
      vertex 0 0 0
      vertex 2.70799 7.35488 0
    endloop
  endfacet
  facet normal 0 0 -1
    outer loop
      vertex 50 0 0
      vertex 48.5 10 0
      vertex 50 20 0
    endloop
  endfacet
  facet normal 0 0 -1
    outer loop
      vertex 50 0 0
      vertex 47.9444 8.10776 0
      vertex 48.5 10 0
    endloop
  endfacet
  facet normal 0 0 -1
    outer loop
      vertex 50 0 0
      vertex 46.454 6.81629 0
      vertex 47.9444 8.10776 0
    endloop
  endfacet
  facet normal 0 0 -1
    outer loop
      vertex 50 0 0
      vertex 44.5019 6.53562 0
      vertex 46.454 6.81629 0
    endloop
  endfacet
  facet normal 0 0 -1
    outer loop
      vertex 50 0 0
      vertex 42.708 7.35488 0
      vertex 44.5019 6.53562 0
    endloop
  endfacet
  facet normal 0 0 -1
    outer loop
      vertex 26.1 10 0
      vertex 41.6418 10.9861 0
      vertex 41.6418 9.01394 0
    endloop
  endfacet
  facet normal -0 0 -1
    outer loop
      vertex 41.6418 10.9861 0
      vertex 26.1 10 0
      vertex 35 20 0
    endloop
  endfacet
  facet normal 0 0 -1
    outer loop
      vertex 26.1 0 0
      vertex 41.6418 9.01394 0
      vertex 42.708 7.35488 0
    endloop
  endfacet
  facet normal 0 0 -1
    outer loop
      vertex 26.1 0 0
      vertex 42.708 7.35488 0
      vertex 50 0 0
    endloop
  endfacet
  facet normal -0 0 -1
    outer loop
      vertex 41.6418 9.01394 0
      vertex 26.1 0 0
      vertex 26.1 10 0
    endloop
  endfacet
  facet normal 0 0 -1
    outer loop
      vertex 35 20 0
      vertex 26.1 10 0
      vertex 25.8014 11.885 0
    endloop
  endfacet
  facet normal 0 0 -1
    outer loop
      vertex 35 20 0
      vertex 25.8014 11.885 0
      vertex 24.935 13.5855 0
    endloop
  endfacet
  facet normal 0 0 -1
    outer loop
      vertex 23.5855 14.935 0
      vertex 35 20 0
      vertex 24.935 13.5855 0
    endloop
  endfacet
  facet normal -0 0 -1
    outer loop
      vertex 35 20 0
      vertex 23.5855 14.935 0
      vertex 27 28 0
    endloop
  endfacet
  facet normal 0 0 -1
    outer loop
      vertex 21.885 15.8014 0
      vertex 27 28 0
      vertex 23.5855 14.935 0
    endloop
  endfacet
  facet normal 0 0 -1
    outer loop
      vertex 20 16.1 0
      vertex 27 28 0
      vertex 21.885 15.8014 0
    endloop
  endfacet
  facet normal 0 0 -1
    outer loop
      vertex 18.115 15.8014 0
      vertex 27 28 0
      vertex 20 16.1 0
    endloop
  endfacet
  facet normal 0 0 -1
    outer loop
      vertex 0 28 0
      vertex 18.115 15.8014 0
      vertex 16.4145 14.935 0
    endloop
  endfacet
  facet normal 0 0 -1
    outer loop
      vertex 6.45395 13.1837 0
      vertex 16.4145 14.935 0
      vertex 15.065 13.5855 0
    endloop
  endfacet
  facet normal 0 0 -1
    outer loop
      vertex 8.5 10 0
      vertex 14.1986 11.885 0
      vertex 13.9 10 0
    endloop
  endfacet
  facet normal 0 0 -1
    outer loop
      vertex 7.94439 11.8922 0
      vertex 14.1986 11.885 0
      vertex 8.5 10 0
    endloop
  endfacet
  facet normal 0 0 -1
    outer loop
      vertex 14.1986 11.885 0
      vertex 7.94439 11.8922 0
      vertex 15.065 13.5855 0
    endloop
  endfacet
  facet normal 0 0 -1
    outer loop
      vertex 6.45395 13.1837 0
      vertex 15.065 13.5855 0
      vertex 7.94439 11.8922 0
    endloop
  endfacet
  facet normal -0 0 -1
    outer loop
      vertex 16.4145 14.935 0
      vertex 6.45395 13.1837 0
      vertex 0 28 0
    endloop
  endfacet
  facet normal 0 0 -1
    outer loop
      vertex 0 28 0
      vertex 6.45395 13.1837 0
      vertex 4.5019 13.4644 0
    endloop
  endfacet
  facet normal 0 0 -1
    outer loop
      vertex 0 28 0
      vertex 4.5019 13.4644 0
      vertex 2.70799 12.6451 0
    endloop
  endfacet
  facet normal 0 0 -1
    outer loop
      vertex 18.115 15.8014 0
      vertex 0 28 0
      vertex 27 28 0
    endloop
  endfacet
  facet normal 0 0 -1
    outer loop
      vertex 1.64177 10.9861 0
      vertex 0 28 0
      vertex 2.70799 12.6451 0
    endloop
  endfacet
  facet normal 0 0 -1
    outer loop
      vertex 0 28 0
      vertex 1.64177 10.9861 0
      vertex 0 0 0
    endloop
  endfacet
  facet normal 0 0 -1
    outer loop
      vertex 47.9444 11.8922 0
      vertex 50 20 0
      vertex 48.5 10 0
    endloop
  endfacet
  facet normal 0 0 -1
    outer loop
      vertex 46.454 13.1837 0
      vertex 50 20 0
      vertex 47.9444 11.8922 0
    endloop
  endfacet
  facet normal 0 0 -1
    outer loop
      vertex 44.5019 13.4644 0
      vertex 50 20 0
      vertex 46.454 13.1837 0
    endloop
  endfacet
  facet normal 0 0 -1
    outer loop
      vertex 35 20 0
      vertex 44.5019 13.4644 0
      vertex 42.708 12.6451 0
    endloop
  endfacet
  facet normal 0 0 -1
    outer loop
      vertex 44.5019 13.4644 0
      vertex 35 20 0
      vertex 50 20 0
    endloop
  endfacet
  facet normal 0 0 -1
    outer loop
      vertex 35 20 0
      vertex 42.708 12.6451 0
      vertex 41.6418 10.9861 0
    endloop
  endfacet
  facet normal 0 -1 0
    outer loop
      vertex 0 0 6
      vertex 11.5 0 4.5
      vertex 11.5 0 6
    endloop
  endfacet
  facet normal 0 -1 0
    outer loop
      vertex 0 0 6.21725e-15
      vertex 11.5 0 4.5
      vertex 0 0 6
    endloop
  endfacet
  facet normal 0 -1 0
    outer loop
      vertex 0 0 0
      vertex 11.5 0 4.5
      vertex 0 0 6.21725e-15
    endloop
  endfacet
  facet normal 0 -1 -0
    outer loop
      vertex 11.5 0 4.5
      vertex 0 0 0
      vertex 13.9 0 0
    endloop
  endfacet
  facet normal 0 -1 0
    outer loop
      vertex 11.5 0 4.5
      vertex 13.9 0 0
      vertex 13.9 0 4.5
    endloop
  endfacet
  facet normal 0 -1 0
    outer loop
      vertex 26.1 0 4.5
      vertex 26.1 0 0
      vertex 28.5 0 4.5
    endloop
  endfacet
  facet normal 0 -1 0
    outer loop
      vertex 28.5 0 4.5
      vertex 50 0 6
      vertex 28.5 0 6
    endloop
  endfacet
  facet normal 0 -1 0
    outer loop
      vertex 50 0 0
      vertex 28.5 0 4.5
      vertex 26.1 0 0
    endloop
  endfacet
  facet normal 0 -1 0
    outer loop
      vertex 28.5 0 4.5
      vertex 50 0 0
      vertex 50 0 6
    endloop
  endfacet
  facet normal -0.959493 -0.281733 0
    outer loop
      vertex 8.5 10 0
      vertex 7.94439 11.8922 3.2
      vertex 7.94439 11.8922 0
    endloop
  endfacet
  facet normal -0.959493 -0.281733 0
    outer loop
      vertex 7.94439 11.8922 3.2
      vertex 8.5 10 0
      vertex 8.5 10 3.2
    endloop
  endfacet
  facet normal 1 -0 0
    outer loop
      vertex 1.64177 9.01394 3.2
      vertex 1.64177 10.9861 0
      vertex 1.64177 10.9861 3.2
    endloop
  endfacet
  facet normal 1 0 0
    outer loop
      vertex 1.64177 10.9861 0
      vertex 1.64177 9.01394 3.2
      vertex 1.64177 9.01394 0
    endloop
  endfacet
  facet normal 0.415415 -0.909632 0
    outer loop
      vertex 2.70799 12.6451 0
      vertex 4.5019 13.4644 3.2
      vertex 2.70799 12.6451 3.2
    endloop
  endfacet
  facet normal 0.415415 -0.909632 0
    outer loop
      vertex 4.5019 13.4644 3.2
      vertex 2.70799 12.6451 0
      vertex 4.5019 13.4644 0
    endloop
  endfacet
  facet normal 0 0 -1
    outer loop
      vertex 7.94439 8.10776 3.2
      vertex 7.94439 11.8922 3.2
      vertex 8.5 10 3.2
    endloop
  endfacet
  facet normal 0 0 -1
    outer loop
      vertex 6.45395 6.81629 3.2
      vertex 7.94439 11.8922 3.2
      vertex 7.94439 8.10776 3.2
    endloop
  endfacet
  facet normal 0 0 -1
    outer loop
      vertex 6.45395 6.81629 3.2
      vertex 6.45395 13.1837 3.2
      vertex 7.94439 11.8922 3.2
    endloop
  endfacet
  facet normal 0 0 -1
    outer loop
      vertex 4.5019 6.53562 3.2
      vertex 6.45395 13.1837 3.2
      vertex 6.45395 6.81629 3.2
    endloop
  endfacet
  facet normal 0 0 -1
    outer loop
      vertex 4.5019 6.53562 3.2
      vertex 4.5019 13.4644 3.2
      vertex 6.45395 13.1837 3.2
    endloop
  endfacet
  facet normal 0 0 -1
    outer loop
      vertex 2.70799 7.35488 3.2
      vertex 4.5019 13.4644 3.2
      vertex 4.5019 6.53562 3.2
    endloop
  endfacet
  facet normal 0 0 -1
    outer loop
      vertex 2.70799 7.35488 3.2
      vertex 2.70799 12.6451 3.2
      vertex 4.5019 13.4644 3.2
    endloop
  endfacet
  facet normal 0 0 -1
    outer loop
      vertex 1.64177 9.01394 3.2
      vertex 2.70799 12.6451 3.2
      vertex 2.70799 7.35488 3.2
    endloop
  endfacet
  facet normal 0 0 -1
    outer loop
      vertex 2.70799 12.6451 3.2
      vertex 1.64177 9.01394 3.2
      vertex 1.64177 10.9861 3.2
    endloop
  endfacet
  facet normal 0.841254 -0.540641 0
    outer loop
      vertex 1.64177 10.9861 3.2
      vertex 2.70799 12.6451 0
      vertex 2.70799 12.6451 3.2
    endloop
  endfacet
  facet normal 0.841254 -0.540641 0
    outer loop
      vertex 2.70799 12.6451 0
      vertex 1.64177 10.9861 3.2
      vertex 1.64177 10.9861 0
    endloop
  endfacet
  facet normal -0.959493 0.281733 0
    outer loop
      vertex 7.94439 8.10776 0
      vertex 8.5 10 3.2
      vertex 8.5 10 0
    endloop
  endfacet
  facet normal -0.959493 0.281733 0
    outer loop
      vertex 8.5 10 3.2
      vertex 7.94439 8.10776 0
      vertex 7.94439 8.10776 3.2
    endloop
  endfacet
  facet normal -0.142315 -0.989821 0
    outer loop
      vertex 4.5019 13.4644 0
      vertex 6.45395 13.1837 3.2
      vertex 4.5019 13.4644 3.2
    endloop
  endfacet
  facet normal -0.142315 -0.989821 -0
    outer loop
      vertex 6.45395 13.1837 3.2
      vertex 4.5019 13.4644 0
      vertex 6.45395 13.1837 0
    endloop
  endfacet
  facet normal -0.654861 -0.75575 0
    outer loop
      vertex 6.45395 13.1837 0
      vertex 7.94439 11.8922 3.2
      vertex 6.45395 13.1837 3.2
    endloop
  endfacet
  facet normal -0.654861 -0.75575 -0
    outer loop
      vertex 7.94439 11.8922 3.2
      vertex 6.45395 13.1837 0
      vertex 7.94439 11.8922 0
    endloop
  endfacet
  facet normal 0.841254 0.540641 0
    outer loop
      vertex 2.70799 7.35488 3.2
      vertex 1.64177 9.01394 0
      vertex 1.64177 9.01394 3.2
    endloop
  endfacet
  facet normal 0.841254 0.540641 0
    outer loop
      vertex 1.64177 9.01394 0
      vertex 2.70799 7.35488 3.2
      vertex 2.70799 7.35488 0
    endloop
  endfacet
  facet normal -0.654861 0.75575 0
    outer loop
      vertex 7.94439 8.10776 0
      vertex 6.45395 6.81629 3.2
      vertex 7.94439 8.10776 3.2
    endloop
  endfacet
  facet normal -0.654861 0.75575 0
    outer loop
      vertex 6.45395 6.81629 3.2
      vertex 7.94439 8.10776 0
      vertex 6.45395 6.81629 0
    endloop
  endfacet
  facet normal -0.142315 0.989821 0
    outer loop
      vertex 6.45395 6.81629 0
      vertex 4.5019 6.53562 3.2
      vertex 6.45395 6.81629 3.2
    endloop
  endfacet
  facet normal -0.142315 0.989821 0
    outer loop
      vertex 4.5019 6.53562 3.2
      vertex 6.45395 6.81629 0
      vertex 4.5019 6.53562 0
    endloop
  endfacet
  facet normal 0.415415 0.909632 -0
    outer loop
      vertex 4.5019 6.53562 0
      vertex 2.70799 7.35488 3.2
      vertex 4.5019 6.53562 3.2
    endloop
  endfacet
  facet normal 0.415415 0.909632 0
    outer loop
      vertex 2.70799 7.35488 3.2
      vertex 4.5019 6.53562 0
      vertex 2.70799 7.35488 0
    endloop
  endfacet
  facet normal -0.959493 -0.281733 0
    outer loop
      vertex 48.5 10 0
      vertex 47.9444 11.8922 3.2
      vertex 47.9444 11.8922 0
    endloop
  endfacet
  facet normal -0.959493 -0.281733 0
    outer loop
      vertex 47.9444 11.8922 3.2
      vertex 48.5 10 0
      vertex 48.5 10 3.2
    endloop
  endfacet
  facet normal 1 -0 0
    outer loop
      vertex 41.6418 9.01394 3.2
      vertex 41.6418 10.9861 0
      vertex 41.6418 10.9861 3.2
    endloop
  endfacet
  facet normal 1 0 0
    outer loop
      vertex 41.6418 10.9861 0
      vertex 41.6418 9.01394 3.2
      vertex 41.6418 9.01394 0
    endloop
  endfacet
  facet normal 0.415414 -0.909632 0
    outer loop
      vertex 42.708 12.6451 0
      vertex 44.5019 13.4644 3.2
      vertex 42.708 12.6451 3.2
    endloop
  endfacet
  facet normal 0.415414 -0.909632 0
    outer loop
      vertex 44.5019 13.4644 3.2
      vertex 42.708 12.6451 0
      vertex 44.5019 13.4644 0
    endloop
  endfacet
  facet normal 0 0 -1
    outer loop
      vertex 47.9444 8.10776 3.2
      vertex 47.9444 11.8922 3.2
      vertex 48.5 10 3.2
    endloop
  endfacet
  facet normal 0 0 -1
    outer loop
      vertex 46.454 6.81629 3.2
      vertex 47.9444 11.8922 3.2
      vertex 47.9444 8.10776 3.2
    endloop
  endfacet
  facet normal 0 0 -1
    outer loop
      vertex 46.454 6.81629 3.2
      vertex 46.454 13.1837 3.2
      vertex 47.9444 11.8922 3.2
    endloop
  endfacet
  facet normal 0 0 -1
    outer loop
      vertex 44.5019 6.53562 3.2
      vertex 46.454 13.1837 3.2
      vertex 46.454 6.81629 3.2
    endloop
  endfacet
  facet normal 0 0 -1
    outer loop
      vertex 44.5019 6.53562 3.2
      vertex 44.5019 13.4644 3.2
      vertex 46.454 13.1837 3.2
    endloop
  endfacet
  facet normal 0 0 -1
    outer loop
      vertex 42.708 7.35488 3.2
      vertex 44.5019 13.4644 3.2
      vertex 44.5019 6.53562 3.2
    endloop
  endfacet
  facet normal 0 0 -1
    outer loop
      vertex 42.708 7.35488 3.2
      vertex 42.708 12.6451 3.2
      vertex 44.5019 13.4644 3.2
    endloop
  endfacet
  facet normal 0 0 -1
    outer loop
      vertex 41.6418 9.01394 3.2
      vertex 42.708 12.6451 3.2
      vertex 42.708 7.35488 3.2
    endloop
  endfacet
  facet normal 0 0 -1
    outer loop
      vertex 42.708 12.6451 3.2
      vertex 41.6418 9.01394 3.2
      vertex 41.6418 10.9861 3.2
    endloop
  endfacet
  facet normal 0.841254 -0.54064 0
    outer loop
      vertex 41.6418 10.9861 3.2
      vertex 42.708 12.6451 0
      vertex 42.708 12.6451 3.2
    endloop
  endfacet
  facet normal 0.841254 -0.54064 0
    outer loop
      vertex 42.708 12.6451 0
      vertex 41.6418 10.9861 3.2
      vertex 41.6418 10.9861 0
    endloop
  endfacet
  facet normal -0.959493 0.281733 0
    outer loop
      vertex 47.9444 8.10776 0
      vertex 48.5 10 3.2
      vertex 48.5 10 0
    endloop
  endfacet
  facet normal -0.959493 0.281733 0
    outer loop
      vertex 48.5 10 3.2
      vertex 47.9444 8.10776 0
      vertex 47.9444 8.10776 3.2
    endloop
  endfacet
  facet normal -0.142315 -0.989821 0
    outer loop
      vertex 44.5019 13.4644 0
      vertex 46.454 13.1837 3.2
      vertex 44.5019 13.4644 3.2
    endloop
  endfacet
  facet normal -0.142315 -0.989821 -0
    outer loop
      vertex 46.454 13.1837 3.2
      vertex 44.5019 13.4644 0
      vertex 46.454 13.1837 0
    endloop
  endfacet
  facet normal -0.654861 -0.755749 0
    outer loop
      vertex 46.454 13.1837 0
      vertex 47.9444 11.8922 3.2
      vertex 46.454 13.1837 3.2
    endloop
  endfacet
  facet normal -0.654861 -0.755749 -0
    outer loop
      vertex 47.9444 11.8922 3.2
      vertex 46.454 13.1837 0
      vertex 47.9444 11.8922 0
    endloop
  endfacet
  facet normal 0.841254 0.54064 0
    outer loop
      vertex 42.708 7.35488 3.2
      vertex 41.6418 9.01394 0
      vertex 41.6418 9.01394 3.2
    endloop
  endfacet
  facet normal 0.841254 0.54064 0
    outer loop
      vertex 41.6418 9.01394 0
      vertex 42.708 7.35488 3.2
      vertex 42.708 7.35488 0
    endloop
  endfacet
  facet normal -0.654861 0.755749 0
    outer loop
      vertex 47.9444 8.10776 0
      vertex 46.454 6.81629 3.2
      vertex 47.9444 8.10776 3.2
    endloop
  endfacet
  facet normal -0.654861 0.755749 0
    outer loop
      vertex 46.454 6.81629 3.2
      vertex 47.9444 8.10776 0
      vertex 46.454 6.81629 0
    endloop
  endfacet
  facet normal 0.415414 0.909632 -0
    outer loop
      vertex 44.5019 6.53562 0
      vertex 42.708 7.35488 3.2
      vertex 44.5019 6.53562 3.2
    endloop
  endfacet
  facet normal 0.415414 0.909632 0
    outer loop
      vertex 42.708 7.35488 3.2
      vertex 44.5019 6.53562 0
      vertex 42.708 7.35488 0
    endloop
  endfacet
  facet normal -0.142315 0.989821 0
    outer loop
      vertex 46.454 6.81629 0
      vertex 44.5019 6.53562 3.2
      vertex 46.454 6.81629 3.2
    endloop
  endfacet
  facet normal -0.142315 0.989821 0
    outer loop
      vertex 44.5019 6.53562 3.2
      vertex 46.454 6.81629 0
      vertex 44.5019 6.53562 0
    endloop
  endfacet
  facet normal -0.900969 -0.433884 0
    outer loop
      vertex 7 10 3.5
      vertex 6.24698 11.5637 6
      vertex 6.24698 11.5637 3.5
    endloop
  endfacet
  facet normal -0.900969 -0.433884 0
    outer loop
      vertex 6.24698 11.5637 6
      vertex 7 10 3.5
      vertex 7 10 6
    endloop
  endfacet
  facet normal 1 -0 0
    outer loop
      vertex 3.19806 9.13223 6
      vertex 3.19806 10.8678 3.5
      vertex 3.19806 10.8678 6
    endloop
  endfacet
  facet normal 1 0 0
    outer loop
      vertex 3.19806 10.8678 3.5
      vertex 3.19806 9.13223 6
      vertex 3.19806 9.13223 3.5
    endloop
  endfacet
  facet normal -0.222521 -0.974928 0
    outer loop
      vertex 4.55496 11.9499 3.5
      vertex 6.24698 11.5637 6
      vertex 4.55496 11.9499 6
    endloop
  endfacet
  facet normal -0.222521 -0.974928 -0
    outer loop
      vertex 6.24698 11.5637 6
      vertex 4.55496 11.9499 3.5
      vertex 6.24698 11.5637 3.5
    endloop
  endfacet
  facet normal 0.62349 -0.781831 0
    outer loop
      vertex 3.19806 10.8678 3.5
      vertex 4.55496 11.9499 6
      vertex 3.19806 10.8678 6
    endloop
  endfacet
  facet normal 0.62349 -0.781831 0
    outer loop
      vertex 4.55496 11.9499 6
      vertex 3.19806 10.8678 3.5
      vertex 4.55496 11.9499 3.5
    endloop
  endfacet
  facet normal -0.900969 0.433884 0
    outer loop
      vertex 6.24698 8.43634 3.5
      vertex 7 10 6
      vertex 7 10 3.5
    endloop
  endfacet
  facet normal -0.900969 0.433884 0
    outer loop
      vertex 7 10 6
      vertex 6.24698 8.43634 3.5
      vertex 6.24698 8.43634 6
    endloop
  endfacet
  facet normal 0 0 1
    outer loop
      vertex 6.24698 11.5637 3.5
      vertex 6.24698 8.43634 3.5
      vertex 7 10 3.5
    endloop
  endfacet
  facet normal 0 0 1
    outer loop
      vertex 4.55496 11.9499 3.5
      vertex 6.24698 8.43634 3.5
      vertex 6.24698 11.5637 3.5
    endloop
  endfacet
  facet normal 0 0 1
    outer loop
      vertex 4.55496 11.9499 3.5
      vertex 4.55496 8.05014 3.5
      vertex 6.24698 8.43634 3.5
    endloop
  endfacet
  facet normal -0 0 1
    outer loop
      vertex 3.19806 10.8678 3.5
      vertex 4.55496 8.05014 3.5
      vertex 4.55496 11.9499 3.5
    endloop
  endfacet
  facet normal 0 0 1
    outer loop
      vertex 4.55496 8.05014 3.5
      vertex 3.19806 10.8678 3.5
      vertex 3.19806 9.13223 3.5
    endloop
  endfacet
  facet normal -0.222521 0.974928 0
    outer loop
      vertex 6.24698 8.43634 3.5
      vertex 4.55496 8.05014 6
      vertex 6.24698 8.43634 6
    endloop
  endfacet
  facet normal -0.222521 0.974928 0
    outer loop
      vertex 4.55496 8.05014 6
      vertex 6.24698 8.43634 3.5
      vertex 4.55496 8.05014 3.5
    endloop
  endfacet
  facet normal 0.62349 0.781831 -0
    outer loop
      vertex 4.55496 8.05014 3.5
      vertex 3.19806 9.13223 6
      vertex 4.55496 8.05014 6
    endloop
  endfacet
  facet normal 0.62349 0.781831 0
    outer loop
      vertex 3.19806 9.13223 6
      vertex 4.55496 8.05014 3.5
      vertex 3.19806 9.13223 3.5
    endloop
  endfacet
  facet normal -0.900969 -0.433884 0
    outer loop
      vertex 47 10 3.5
      vertex 46.247 11.5637 6
      vertex 46.247 11.5637 3.5
    endloop
  endfacet
  facet normal -0.900969 -0.433884 0
    outer loop
      vertex 46.247 11.5637 6
      vertex 47 10 3.5
      vertex 47 10 6
    endloop
  endfacet
  facet normal 1 -0 0
    outer loop
      vertex 43.1981 9.13223 6
      vertex 43.1981 10.8678 3.5
      vertex 43.1981 10.8678 6
    endloop
  endfacet
  facet normal 1 0 0
    outer loop
      vertex 43.1981 10.8678 3.5
      vertex 43.1981 9.13223 6
      vertex 43.1981 9.13223 3.5
    endloop
  endfacet
  facet normal -0.222521 -0.974928 0
    outer loop
      vertex 44.555 11.9499 3.5
      vertex 46.247 11.5637 6
      vertex 44.555 11.9499 6
    endloop
  endfacet
  facet normal -0.222521 -0.974928 -0
    outer loop
      vertex 46.247 11.5637 6
      vertex 44.555 11.9499 3.5
      vertex 46.247 11.5637 3.5
    endloop
  endfacet
  facet normal 0.62349 0.781831 -0
    outer loop
      vertex 44.555 8.05014 3.5
      vertex 43.1981 9.13223 6
      vertex 44.555 8.05014 6
    endloop
  endfacet
  facet normal 0.62349 0.781831 0
    outer loop
      vertex 43.1981 9.13223 6
      vertex 44.555 8.05014 3.5
      vertex 43.1981 9.13223 3.5
    endloop
  endfacet
  facet normal 0.62349 -0.781831 0
    outer loop
      vertex 43.1981 10.8678 3.5
      vertex 44.555 11.9499 6
      vertex 43.1981 10.8678 6
    endloop
  endfacet
  facet normal 0.62349 -0.781831 0
    outer loop
      vertex 44.555 11.9499 6
      vertex 43.1981 10.8678 3.5
      vertex 44.555 11.9499 3.5
    endloop
  endfacet
  facet normal 0 0 1
    outer loop
      vertex 46.247 11.5637 3.5
      vertex 46.247 8.43634 3.5
      vertex 47 10 3.5
    endloop
  endfacet
  facet normal 0 0 1
    outer loop
      vertex 44.555 11.9499 3.5
      vertex 46.247 8.43634 3.5
      vertex 46.247 11.5637 3.5
    endloop
  endfacet
  facet normal 0 0 1
    outer loop
      vertex 44.555 11.9499 3.5
      vertex 44.555 8.05014 3.5
      vertex 46.247 8.43634 3.5
    endloop
  endfacet
  facet normal -0 0 1
    outer loop
      vertex 43.1981 10.8678 3.5
      vertex 44.555 8.05014 3.5
      vertex 44.555 11.9499 3.5
    endloop
  endfacet
  facet normal 0 0 1
    outer loop
      vertex 44.555 8.05014 3.5
      vertex 43.1981 10.8678 3.5
      vertex 43.1981 9.13223 3.5
    endloop
  endfacet
  facet normal -0.222521 0.974928 0
    outer loop
      vertex 46.247 8.43634 3.5
      vertex 44.555 8.05014 6
      vertex 46.247 8.43634 6
    endloop
  endfacet
  facet normal -0.222521 0.974928 0
    outer loop
      vertex 44.555 8.05014 6
      vertex 46.247 8.43634 3.5
      vertex 44.555 8.05014 3.5
    endloop
  endfacet
  facet normal -0.900969 0.433884 0
    outer loop
      vertex 46.247 8.43634 3.5
      vertex 47 10 6
      vertex 47 10 3.5
    endloop
  endfacet
  facet normal -0.900969 0.433884 0
    outer loop
      vertex 47 10 6
      vertex 46.247 8.43634 3.5
      vertex 46.247 8.43634 6
    endloop
  endfacet
  facet normal -0.987688 -0.156434 0
    outer loop
      vertex 26.1 10 0
      vertex 25.8014 11.885 4.5
      vertex 25.8014 11.885 0
    endloop
  endfacet
  facet normal -0.987688 -0.156434 0
    outer loop
      vertex 25.8014 11.885 4.5
      vertex 26.1 10 0
      vertex 26.1 10 4.5
    endloop
  endfacet
  facet normal 0.156434 -0.987688 0
    outer loop
      vertex 18.115 15.8014 0
      vertex 20 16.1 4.5
      vertex 18.115 15.8014 4.5
    endloop
  endfacet
  facet normal 0.156434 -0.987688 0
    outer loop
      vertex 20 16.1 4.5
      vertex 18.115 15.8014 0
      vertex 20 16.1 0
    endloop
  endfacet
  facet normal -0.707107 -0.707107 0
    outer loop
      vertex 24.935 13.5855 0
      vertex 23.5855 14.935 4.5
      vertex 23.5855 14.935 0
    endloop
  endfacet
  facet normal -0.707107 -0.707107 0
    outer loop
      vertex 23.5855 14.935 4.5
      vertex 24.935 13.5855 0
      vertex 24.935 13.5855 4.5
    endloop
  endfacet
  facet normal -0.891006 -0.453991 0
    outer loop
      vertex 25.8014 11.885 0
      vertex 24.935 13.5855 4.5
      vertex 24.935 13.5855 0
    endloop
  endfacet
  facet normal -0.891006 -0.453991 0
    outer loop
      vertex 24.935 13.5855 4.5
      vertex 25.8014 11.885 0
      vertex 25.8014 11.885 4.5
    endloop
  endfacet
  facet normal 0.707107 -0.707107 0
    outer loop
      vertex 15.065 13.5855 4.5
      vertex 16.4145 14.935 0
      vertex 16.4145 14.935 4.5
    endloop
  endfacet
  facet normal 0.707107 -0.707107 0
    outer loop
      vertex 16.4145 14.935 0
      vertex 15.065 13.5855 4.5
      vertex 15.065 13.5855 0
    endloop
  endfacet
  facet normal 0.45399 -0.891007 0
    outer loop
      vertex 16.4145 14.935 0
      vertex 18.115 15.8014 4.5
      vertex 16.4145 14.935 4.5
    endloop
  endfacet
  facet normal 0.45399 -0.891007 0
    outer loop
      vertex 18.115 15.8014 4.5
      vertex 16.4145 14.935 0
      vertex 18.115 15.8014 0
    endloop
  endfacet
  facet normal -0.156434 -0.987688 0
    outer loop
      vertex 20 16.1 0
      vertex 21.885 15.8014 4.5
      vertex 20 16.1 4.5
    endloop
  endfacet
  facet normal -0.156434 -0.987688 -0
    outer loop
      vertex 21.885 15.8014 4.5
      vertex 20 16.1 0
      vertex 21.885 15.8014 0
    endloop
  endfacet
  facet normal -0.45399 -0.891007 0
    outer loop
      vertex 21.885 15.8014 0
      vertex 23.5855 14.935 4.5
      vertex 21.885 15.8014 4.5
    endloop
  endfacet
  facet normal -0.45399 -0.891007 -0
    outer loop
      vertex 23.5855 14.935 4.5
      vertex 21.885 15.8014 0
      vertex 23.5855 14.935 0
    endloop
  endfacet
  facet normal 0.891007 -0.45399 0
    outer loop
      vertex 14.1986 11.885 4.5
      vertex 15.065 13.5855 0
      vertex 15.065 13.5855 4.5
    endloop
  endfacet
  facet normal 0.891007 -0.45399 0
    outer loop
      vertex 15.065 13.5855 0
      vertex 14.1986 11.885 4.5
      vertex 14.1986 11.885 0
    endloop
  endfacet
  facet normal 0.987688 -0.156435 0
    outer loop
      vertex 13.9 10 4.5
      vertex 14.1986 11.885 0
      vertex 14.1986 11.885 4.5
    endloop
  endfacet
  facet normal 0.987688 -0.156435 0
    outer loop
      vertex 14.1986 11.885 0
      vertex 13.9 10 4.5
      vertex 13.9 10 0
    endloop
  endfacet
  facet normal -0.993238 -0.116093 0
    outer loop
      vertex 28.5 10 4.5
      vertex 28.2709 11.9602 6
      vertex 28.2709 11.9602 4.5
    endloop
  endfacet
  facet normal -0.993238 -0.116093 0
    outer loop
      vertex 28.2709 11.9602 6
      vertex 28.5 10 4.5
      vertex 28.5 10 6
    endloop
  endfacet
  facet normal 1 -0 0
    outer loop
      vertex 11.5575 10 6
      vertex 11.5575 10.9868 4.5
      vertex 11.5575 10.9868 6
    endloop
  endfacet
  facet normal 1 0 0
    outer loop
      vertex 11.5575 10.9868 4.5
      vertex 11.5575 10 6
      vertex 11.5575 10 4.5
    endloop
  endfacet
  facet normal 0.173648 -0.984808 0
    outer loop
      vertex 17.5622 18.1429 4.5
      vertex 19.5058 18.4856 6
      vertex 17.5622 18.1429 6
    endloop
  endfacet
  facet normal 0.173648 -0.984808 0
    outer loop
      vertex 19.5058 18.4856 6
      vertex 17.5622 18.1429 4.5
      vertex 19.5058 18.4856 4.5
    endloop
  endfacet
  facet normal -0.686242 -0.727374 0
    outer loop
      vertex 25.0758 16.818 4.5
      vertex 26.5114 15.4637 6
      vertex 25.0758 16.818 6
    endloop
  endfacet
  facet normal -0.686242 -0.727374 -0
    outer loop
      vertex 26.5114 15.4637 6
      vertex 25.0758 16.818 4.5
      vertex 26.5114 15.4637 4.5
    endloop
  endfacet
  facet normal 0.766044 -0.642788 0
    outer loop
      vertex 12.8984 14.6708 6
      vertex 14.1669 16.1827 4.5
      vertex 14.1669 16.1827 6
    endloop
  endfacet
  facet normal 0.766044 -0.642788 0
    outer loop
      vertex 14.1669 16.1827 4.5
      vertex 12.8984 14.6708 6
      vertex 12.8984 14.6708 4.5
    endloop
  endfacet
  facet normal 0.597159 -0.802123 0
    outer loop
      vertex 14.1669 16.1827 4.5
      vertex 15.75 17.3612 6
      vertex 14.1669 16.1827 6
    endloop
  endfacet
  facet normal 0.597159 -0.802123 0
    outer loop
      vertex 15.75 17.3612 6
      vertex 14.1669 16.1827 4.5
      vertex 15.75 17.3612 4.5
    endloop
  endfacet
  facet normal 0 0 1
    outer loop
      vertex 28.2709 11.9602 4.5
      vertex 25.8014 11.885 4.5
      vertex 26.1 10 4.5
    endloop
  endfacet
  facet normal 0 0 1
    outer loop
      vertex 23.5855 14.935 4.5
      vertex 26.5114 15.4637 4.5
      vertex 25.0758 16.818 4.5
    endloop
  endfacet
  facet normal 0 0 1
    outer loop
      vertex 27.5959 13.8148 4.5
      vertex 24.935 13.5855 4.5
      vertex 25.8014 11.885 4.5
    endloop
  endfacet
  facet normal 0 0 1
    outer loop
      vertex 26.5114 15.4637 4.5
      vertex 23.5855 14.935 4.5
      vertex 24.935 13.5855 4.5
    endloop
  endfacet
  facet normal 0 0 1
    outer loop
      vertex 23.3667 17.8048 4.5
      vertex 23.5855 14.935 4.5
      vertex 25.0758 16.818 4.5
    endloop
  endfacet
  facet normal 0 0 1
    outer loop
      vertex 23.3667 17.8048 4.5
      vertex 21.885 15.8014 4.5
      vertex 23.5855 14.935 4.5
    endloop
  endfacet
  facet normal 0 0 1
    outer loop
      vertex 21.476 18.3709 4.5
      vertex 21.885 15.8014 4.5
      vertex 23.3667 17.8048 4.5
    endloop
  endfacet
  facet normal 0 0 1
    outer loop
      vertex 21.476 18.3709 4.5
      vertex 20 16.1 4.5
      vertex 21.885 15.8014 4.5
    endloop
  endfacet
  facet normal 0 0 1
    outer loop
      vertex 19.5058 18.4856 4.5
      vertex 20 16.1 4.5
      vertex 21.476 18.3709 4.5
    endloop
  endfacet
  facet normal 0 0 1
    outer loop
      vertex 19.5058 18.4856 4.5
      vertex 18.115 15.8014 4.5
      vertex 20 16.1 4.5
    endloop
  endfacet
  facet normal -0 0 1
    outer loop
      vertex 17.5622 18.1429 4.5
      vertex 18.115 15.8014 4.5
      vertex 19.5058 18.4856 4.5
    endloop
  endfacet
  facet normal -0 0 1
    outer loop
      vertex 15.75 17.3612 4.5
      vertex 18.115 15.8014 4.5
      vertex 17.5622 18.1429 4.5
    endloop
  endfacet
  facet normal 0 0 1
    outer loop
      vertex 18.115 15.8014 4.5
      vertex 15.75 17.3612 4.5
      vertex 16.4145 14.935 4.5
    endloop
  endfacet
  facet normal -0 0 1
    outer loop
      vertex 14.1669 16.1827 4.5
      vertex 16.4145 14.935 4.5
      vertex 15.75 17.3612 4.5
    endloop
  endfacet
  facet normal 0 0 1
    outer loop
      vertex 16.4145 14.935 4.5
      vertex 14.1669 16.1827 4.5
      vertex 15.065 13.5855 4.5
    endloop
  endfacet
  facet normal -0 0 1
    outer loop
      vertex 12.8984 14.6708 4.5
      vertex 15.065 13.5855 4.5
      vertex 14.1669 16.1827 4.5
    endloop
  endfacet
  facet normal 0 0 1
    outer loop
      vertex 15.065 13.5855 4.5
      vertex 12.8984 14.6708 4.5
      vertex 14.1986 11.885 4.5
    endloop
  endfacet
  facet normal -0 0 1
    outer loop
      vertex 12.0126 12.9072 4.5
      vertex 14.1986 11.885 4.5
      vertex 12.8984 14.6708 4.5
    endloop
  endfacet
  facet normal 0 0 1
    outer loop
      vertex 11.5575 10.9868 4.5
      vertex 14.1986 11.885 4.5
      vertex 12.0126 12.9072 4.5
    endloop
  endfacet
  facet normal 0 0 1
    outer loop
      vertex 14.1986 11.885 4.5
      vertex 11.5575 10.9868 4.5
      vertex 13.9 10 4.5
    endloop
  endfacet
  facet normal 0 0 1
    outer loop
      vertex 13.9 10 4.5
      vertex 11.5575 10.9868 4.5
      vertex 11.5575 10 4.5
    endloop
  endfacet
  facet normal 0 0 1
    outer loop
      vertex 13.9 10 4.5
      vertex 11.5575 10 4.5
      vertex 13.9 0 4.5
    endloop
  endfacet
  facet normal 0 0 1
    outer loop
      vertex 11.5 0 4.5
      vertex 11.5575 10 4.5
      vertex 11.5 10 4.5
    endloop
  endfacet
  facet normal 0 0 1
    outer loop
      vertex 11.5575 10 4.5
      vertex 11.5 0 4.5
      vertex 13.9 0 4.5
    endloop
  endfacet
  facet normal 0 0 1
    outer loop
      vertex 26.1 10 4.5
      vertex 28.5 10 4.5
      vertex 28.2709 11.9602 4.5
    endloop
  endfacet
  facet normal 0 0 1
    outer loop
      vertex 25.8014 11.885 4.5
      vertex 28.2709 11.9602 4.5
      vertex 27.5959 13.8148 4.5
    endloop
  endfacet
  facet normal 0 0 1
    outer loop
      vertex 24.935 13.5855 4.5
      vertex 27.5959 13.8148 4.5
      vertex 26.5114 15.4637 4.5
    endloop
  endfacet
  facet normal 0 0 1
    outer loop
      vertex 28.5 10 4.5
      vertex 26.1 10 4.5
      vertex 28.5 0 4.5
    endloop
  endfacet
  facet normal 0 0 1
    outer loop
      vertex 28.5 0 4.5
      vertex 26.1 10 4.5
      vertex 26.1 0 4.5
    endloop
  endfacet
  facet normal -0.835488 -0.549509 0
    outer loop
      vertex 27.5959 13.8148 4.5
      vertex 26.5114 15.4637 6
      vertex 26.5114 15.4637 4.5
    endloop
  endfacet
  facet normal -0.835488 -0.549509 0
    outer loop
      vertex 26.5114 15.4637 6
      vertex 27.5959 13.8148 4.5
      vertex 27.5959 13.8148 6
    endloop
  endfacet
  facet normal -0.939692 -0.342021 0
    outer loop
      vertex 28.2709 11.9602 4.5
      vertex 27.5959 13.8148 6
      vertex 27.5959 13.8148 4.5
    endloop
  endfacet
  facet normal -0.939692 -0.342021 0
    outer loop
      vertex 27.5959 13.8148 6
      vertex 28.2709 11.9602 4.5
      vertex 28.2709 11.9602 6
    endloop
  endfacet
  facet normal -0.286803 -0.95799 0
    outer loop
      vertex 21.476 18.3709 4.5
      vertex 23.3667 17.8048 6
      vertex 21.476 18.3709 6
    endloop
  endfacet
  facet normal -0.286803 -0.95799 -0
    outer loop
      vertex 23.3667 17.8048 6
      vertex 21.476 18.3709 4.5
      vertex 23.3667 17.8048 4.5
    endloop
  endfacet
  facet normal -0.0581449 -0.998308 0
    outer loop
      vertex 19.5058 18.4856 4.5
      vertex 21.476 18.3709 6
      vertex 19.5058 18.4856 6
    endloop
  endfacet
  facet normal -0.0581449 -0.998308 -0
    outer loop
      vertex 21.476 18.3709 6
      vertex 19.5058 18.4856 4.5
      vertex 21.476 18.3709 4.5
    endloop
  endfacet
  facet normal -0.5 -0.866026 0
    outer loop
      vertex 23.3667 17.8048 4.5
      vertex 25.0758 16.818 6
      vertex 23.3667 17.8048 6
    endloop
  endfacet
  facet normal -0.5 -0.866026 -0
    outer loop
      vertex 25.0758 16.818 6
      vertex 23.3667 17.8048 4.5
      vertex 25.0758 16.818 4.5
    endloop
  endfacet
  facet normal 0.893633 -0.448799 0
    outer loop
      vertex 12.0126 12.9072 6
      vertex 12.8984 14.6708 4.5
      vertex 12.8984 14.6708 6
    endloop
  endfacet
  facet normal 0.893633 -0.448799 0
    outer loop
      vertex 12.8984 14.6708 4.5
      vertex 12.0126 12.9072 6
      vertex 12.0126 12.9072 4.5
    endloop
  endfacet
  facet normal 0.973045 -0.230616 0
    outer loop
      vertex 11.5575 10.9868 6
      vertex 12.0126 12.9072 4.5
      vertex 12.0126 12.9072 6
    endloop
  endfacet
  facet normal 0.973045 -0.230616 0
    outer loop
      vertex 12.0126 12.9072 4.5
      vertex 11.5575 10.9868 6
      vertex 11.5575 10.9868 4.5
    endloop
  endfacet
  facet normal 0.39608 -0.918216 0
    outer loop
      vertex 15.75 17.3612 4.5
      vertex 17.5622 18.1429 6
      vertex 15.75 17.3612 6
    endloop
  endfacet
  facet normal 0.39608 -0.918216 0
    outer loop
      vertex 17.5622 18.1429 6
      vertex 15.75 17.3612 4.5
      vertex 17.5622 18.1429 4.5
    endloop
  endfacet
  facet normal 1 -0 0
    outer loop
      vertex 13.9 0 4.5
      vertex 13.9 10 0
      vertex 13.9 10 4.5
    endloop
  endfacet
  facet normal 1 0 0
    outer loop
      vertex 13.9 10 0
      vertex 13.9 0 4.5
      vertex 13.9 0 0
    endloop
  endfacet
  facet normal -1 0 0
    outer loop
      vertex 26.1 0 0
      vertex 26.1 10 4.5
      vertex 26.1 10 0
    endloop
  endfacet
  facet normal -1 -0 0
    outer loop
      vertex 26.1 10 4.5
      vertex 26.1 0 0
      vertex 26.1 0 4.5
    endloop
  endfacet
  facet normal 1 -0 0
    outer loop
      vertex 11.5 0 6
      vertex 11.5 10 4.5
      vertex 11.5 10 6
    endloop
  endfacet
  facet normal 1 0 0
    outer loop
      vertex 11.5 10 4.5
      vertex 11.5 0 6
      vertex 11.5 0 4.5
    endloop
  endfacet
  facet normal -1 0 0
    outer loop
      vertex 28.5 0 4.5
      vertex 28.5 10 6
      vertex 28.5 10 4.5
    endloop
  endfacet
  facet normal -1 -0 0
    outer loop
      vertex 28.5 10 6
      vertex 28.5 0 4.5
      vertex 28.5 0 6
    endloop
  endfacet
  facet normal 0 -1 0
    outer loop
      vertex 11.5 10 4.5
      vertex 11.5575 10 6
      vertex 11.5 10 6
    endloop
  endfacet
  facet normal 0 -1 -0
    outer loop
      vertex 11.5575 10 6
      vertex 11.5 10 4.5
      vertex 11.5575 10 4.5
    endloop
  endfacet
  facet normal 0 1 -0
    outer loop
      vertex 27 28 0
      vertex 0 28 6
      vertex 27 28 6
    endloop
  endfacet
  facet normal 0 1 0
    outer loop
      vertex 0 28 6
      vertex 27 28 0
      vertex 0 28 0
    endloop
  endfacet
  facet normal 0.707107 0.707107 0
    outer loop
      vertex 35 20 6
      vertex 27 28 0
      vertex 27 28 6
    endloop
  endfacet
  facet normal 0.707107 0.707107 0
    outer loop
      vertex 27 28 0
      vertex 35 20 6
      vertex 35 20 0
    endloop
  endfacet
  facet normal 0 0 1
    outer loop
      vertex 0 28 6
      vertex -7 14 6
      vertex 0 1.33227e-15 6
    endloop
  endfacet
  facet normal 0 0 1
    outer loop
      vertex 0 28 6
      vertex -7.12312 15.5643 6
      vertex -7 14 6
    endloop
  endfacet
  facet normal 0 0 1
    outer loop
      vertex 0 28 6
      vertex -7.48943 17.0902 6
      vertex -7.12312 15.5643 6
    endloop
  endfacet
  facet normal 0 0 1
    outer loop
      vertex 0 28 6
      vertex -8.08993 18.5399 6
      vertex -7.48943 17.0902 6
    endloop
  endfacet
  facet normal 0 0 1
    outer loop
      vertex 0 28 6
      vertex -8.90983 19.8779 6
      vertex -8.08993 18.5399 6
    endloop
  endfacet
  facet normal 0 0 1
    outer loop
      vertex 0 28 6
      vertex -9.92893 21.0711 6
      vertex -8.90983 19.8779 6
    endloop
  endfacet
  facet normal 0 0 1
    outer loop
      vertex 0 28 6
      vertex -11.1221 22.0902 6
      vertex -9.92893 21.0711 6
    endloop
  endfacet
  facet normal 0 0 1
    outer loop
      vertex 0 28 6
      vertex -12.4601 22.9101 6
      vertex -11.1221 22.0902 6
    endloop
  endfacet
  facet normal 0 0 1
    outer loop
      vertex 0 28 6
      vertex -13.9098 23.5106 6
      vertex -12.4601 22.9101 6
    endloop
  endfacet
  facet normal 0 0 1
    outer loop
      vertex 0 28 6
      vertex -15.4357 23.8769 6
      vertex -13.9098 23.5106 6
    endloop
  endfacet
  facet normal -0 0 1
    outer loop
      vertex -24 28 6
      vertex -15.4357 23.8769 6
      vertex 0 28 6
    endloop
  endfacet
  facet normal -0 -0 1
    outer loop
      vertex -23.8683 27.8683 6
      vertex -15.4357 23.8769 6
      vertex -24 28 6
    endloop
  endfacet
  facet normal 0 0 1
    outer loop
      vertex -21.5399 22.9101 6
      vertex -23.8683 27.8683 6
      vertex -22.8779 22.0902 6
    endloop
  endfacet
  facet normal 0 0 1
    outer loop
      vertex -20.0902 23.5106 6
      vertex -23.8683 27.8683 6
      vertex -21.5399 22.9101 6
    endloop
  endfacet
  facet normal 0 0 1
    outer loop
      vertex -18.5643 23.8769 6
      vertex -23.8683 27.8683 6
      vertex -20.0902 23.5106 6
    endloop
  endfacet
  facet normal 0 0 1
    outer loop
      vertex -17 24 6
      vertex -23.8683 27.8683 6
      vertex -18.5643 23.8769 6
    endloop
  endfacet
  facet normal 0 0 1
    outer loop
      vertex -15.4357 23.8769 6
      vertex -23.8683 27.8683 6
      vertex -17 24 6
    endloop
  endfacet
  facet normal -0 0 1
    outer loop
      vertex -7.12312 12.4357 6
      vertex 0 1.33227e-15 6
      vertex -7 14 6
    endloop
  endfacet
  facet normal -0 0 1
    outer loop
      vertex -7.48943 10.9098 6
      vertex 0 1.33227e-15 6
      vertex -7.12312 12.4357 6
    endloop
  endfacet
  facet normal -0 0 1
    outer loop
      vertex -8.08993 9.4601 6
      vertex 0 1.33227e-15 6
      vertex -7.48943 10.9098 6
    endloop
  endfacet
  facet normal -0 0 1
    outer loop
      vertex -8.90983 8.12215 6
      vertex 0 1.33227e-15 6
      vertex -8.08993 9.4601 6
    endloop
  endfacet
  facet normal -0 0 1
    outer loop
      vertex -9.92893 6.92893 6
      vertex 0 1.33227e-15 6
      vertex -8.90983 8.12215 6
    endloop
  endfacet
  facet normal -0 0 1
    outer loop
      vertex -11.1221 5.90983 6
      vertex 0 1.33227e-15 6
      vertex -9.92893 6.92893 6
    endloop
  endfacet
  facet normal -0 0 1
    outer loop
      vertex -12.4601 5.08994 6
      vertex 0 1.33227e-15 6
      vertex -11.1221 5.90983 6
    endloop
  endfacet
  facet normal -0 0 1
    outer loop
      vertex -13.9098 4.48944 6
      vertex 0 1.33227e-15 6
      vertex -12.4601 5.08994 6
    endloop
  endfacet
  facet normal -0 0 1
    outer loop
      vertex -15.4357 4.12312 6
      vertex 0 1.33227e-15 6
      vertex -13.9098 4.48944 6
    endloop
  endfacet
  facet normal 0 0 1
    outer loop
      vertex -24 1.33227e-15 6
      vertex -15.4357 4.12312 6
      vertex -17 4 6
    endloop
  endfacet
  facet normal 0 0 1
    outer loop
      vertex -24 1.33227e-15 6
      vertex -17 4 6
      vertex -18.5643 4.12312 6
    endloop
  endfacet
  facet normal 0 0 1
    outer loop
      vertex -15.4357 4.12312 6
      vertex -24 1.33227e-15 6
      vertex 0 1.33227e-15 6
    endloop
  endfacet
  facet normal 0 0 1
    outer loop
      vertex -20.0902 4.48944 6
      vertex -24 1.33227e-15 6
      vertex -18.5643 4.12312 6
    endloop
  endfacet
  facet normal 0 0 1
    outer loop
      vertex -21.5399 5.08994 6
      vertex -24 1.33227e-15 6
      vertex -20.0902 4.48944 6
    endloop
  endfacet
  facet normal 0 0 1
    outer loop
      vertex -22.8779 5.90983 6
      vertex -24 1.33227e-15 6
      vertex -21.5399 5.08994 6
    endloop
  endfacet
  facet normal 0 0 1
    outer loop
      vertex -24.0711 6.92893 6
      vertex -24 1.33227e-15 6
      vertex -22.8779 5.90983 6
    endloop
  endfacet
  facet normal -0 0 1
    outer loop
      vertex -32 8 6
      vertex -24.0711 6.92893 6
      vertex -25.0902 8.12215 6
    endloop
  endfacet
  facet normal 0 0 1
    outer loop
      vertex -32 8 6
      vertex -25.0902 8.12215 6
      vertex -25.9101 9.4601 6
    endloop
  endfacet
  facet normal 0 0 1
    outer loop
      vertex -32 8 6
      vertex -25.9101 9.4601 6
      vertex -26.5106 10.9098 6
    endloop
  endfacet
  facet normal 0 0 1
    outer loop
      vertex -32 8 6
      vertex -26.5106 10.9098 6
      vertex -26.8769 12.4357 6
    endloop
  endfacet
  facet normal 0 0 1
    outer loop
      vertex -32 8 6
      vertex -27 14 6
      vertex -32 19.7365 6
    endloop
  endfacet
  facet normal 0 0 1
    outer loop
      vertex -27 14 6
      vertex -32 8 6
      vertex -26.8769 12.4357 6
    endloop
  endfacet
  facet normal 0 0 1
    outer loop
      vertex -24.0711 6.92893 6
      vertex -32 8 6
      vertex -24 1.33227e-15 6
    endloop
  endfacet
  facet normal 0 0 1
    outer loop
      vertex -23.8683 27.8683 6
      vertex -24.0711 21.0711 6
      vertex -22.8779 22.0902 6
    endloop
  endfacet
  facet normal 0 0 1
    outer loop
      vertex -32 19.7365 6
      vertex -24.0711 21.0711 6
      vertex -23.8683 27.8683 6
    endloop
  endfacet
  facet normal 0 0 1
    outer loop
      vertex -24.0711 21.0711 6
      vertex -32 19.7365 6
      vertex -25.0902 19.8779 6
    endloop
  endfacet
  facet normal 0 0 1
    outer loop
      vertex -25.0902 19.8779 6
      vertex -32 19.7365 6
      vertex -25.9101 18.5399 6
    endloop
  endfacet
  facet normal 0 0 1
    outer loop
      vertex -26.8769 15.5643 6
      vertex -32 19.7365 6
      vertex -27 14 6
    endloop
  endfacet
  facet normal 0 0 1
    outer loop
      vertex -26.5106 17.0902 6
      vertex -32 19.7365 6
      vertex -26.8769 15.5643 6
    endloop
  endfacet
  facet normal 0 0 1
    outer loop
      vertex -25.9101 18.5399 6
      vertex -32 19.7365 6
      vertex -26.5106 17.0902 6
    endloop
  endfacet
  facet normal 0 -1 2.22045e-16
    outer loop
      vertex -24 0 6.21725e-15
      vertex 0 1.33227e-15 6
      vertex -24 1.33227e-15 6
    endloop
  endfacet
  facet normal 0 -1 2.22045e-16
    outer loop
      vertex 0 1.33227e-15 6
      vertex -24 0 6.21725e-15
      vertex 0 0 6.21725e-15
    endloop
  endfacet
  facet normal 3.36915e-22 -2.22045e-16 -1
    outer loop
      vertex -24.0711 21.0711 1.53853e-15
      vertex -23.8683 27.8683 2.92493e-17
      vertex -22.8779 22.0902 1.31225e-15
    endloop
  endfacet
  facet normal -2.74969e-23 -2.22045e-16 -1
    outer loop
      vertex -32 19.7365 1.83486e-15
      vertex -24.0711 21.0711 1.53853e-15
      vertex -25.0902 19.8779 1.80348e-15
    endloop
  endfacet
  facet normal -3.10349e-23 -2.22045e-16 -1
    outer loop
      vertex -32 19.7365 1.83486e-15
      vertex -25.0902 19.8779 1.80348e-15
      vertex -25.9101 18.5399 2.10056e-15
    endloop
  endfacet
  facet normal -5.86959e-23 -2.22045e-16 -1
    outer loop
      vertex -32 19.7365 1.83486e-15
      vertex -25.9101 18.5399 2.10056e-15
      vertex -26.5106 17.0902 2.42247e-15
    endloop
  endfacet
  facet normal -2.16512e-23 -2.22045e-16 -1
    outer loop
      vertex -32 19.7365 1.83486e-15
      vertex -27 14 3.10862e-15
      vertex -32 8 4.44089e-15
    endloop
  endfacet
  facet normal -3.88442e-23 -2.22045e-16 -1
    outer loop
      vertex -27 14 3.10862e-15
      vertex -32 19.7365 1.83486e-15
      vertex -26.8769 15.5643 2.76127e-15
    endloop
  endfacet
  facet normal 5.99648e-23 -2.22044e-16 -1
    outer loop
      vertex -26.8769 15.5643 2.76127e-15
      vertex -32 19.7365 1.83486e-15
      vertex -26.5106 17.0902 2.42247e-15
    endloop
  endfacet
  facet normal -5.89536e-23 -2.22045e-16 -1
    outer loop
      vertex -24.0711 21.0711 1.53853e-15
      vertex -32 19.7365 1.83486e-15
      vertex -23.8683 27.8683 2.92493e-17
    endloop
  endfacet
  facet normal 0 -2.22045e-16 -1
    outer loop
      vertex 0 0 6.21725e-15
      vertex -7 14 3.10862e-15
      vertex 0 28 0
    endloop
  endfacet
  facet normal 0 -2.22045e-16 -1
    outer loop
      vertex 0 0 6.21725e-15
      vertex -7.12312 12.4357 3.45598e-15
      vertex -7 14 3.10862e-15
    endloop
  endfacet
  facet normal 0 -2.22045e-16 -1
    outer loop
      vertex 0 0 6.21725e-15
      vertex -7.48943 10.9098 3.79478e-15
      vertex -7.12312 12.4357 3.45598e-15
    endloop
  endfacet
  facet normal -1.32704e-22 -2.22045e-16 -1
    outer loop
      vertex 0 0 6.21725e-15
      vertex -8.08993 9.4601 4.11669e-15
      vertex -7.48943 10.9098 3.79478e-15
    endloop
  endfacet
  facet normal -1.52486e-23 -2.22045e-16 -1
    outer loop
      vertex 0 0 6.21725e-15
      vertex -8.90983 8.12215 4.41377e-15
      vertex -8.08993 9.4601 4.11669e-15
    endloop
  endfacet
  facet normal 7.75972e-23 -2.22044e-16 -1
    outer loop
      vertex 0 0 6.21725e-15
      vertex -9.92893 6.92893 4.67872e-15
      vertex -8.90983 8.12215 4.41377e-15
    endloop
  endfacet
  facet normal 0 -2.22045e-16 -1
    outer loop
      vertex 0 0 6.21725e-15
      vertex -11.1221 5.90983 4.905e-15
      vertex -9.92893 6.92893 4.67872e-15
    endloop
  endfacet
  facet normal 0 -2.22045e-16 -1
    outer loop
      vertex 0 0 6.21725e-15
      vertex -12.4601 5.08994 5.08706e-15
      vertex -11.1221 5.90983 4.905e-15
    endloop
  endfacet
  facet normal 0 -2.22045e-16 -1
    outer loop
      vertex 0 0 6.21725e-15
      vertex -13.9098 4.48944 5.22039e-15
      vertex -12.4601 5.08994 5.08706e-15
    endloop
  endfacet
  facet normal 0 -2.22045e-16 -1
    outer loop
      vertex 0 0 6.21725e-15
      vertex -15.4357 4.12312 5.30173e-15
      vertex -13.9098 4.48944 5.22039e-15
    endloop
  endfacet
  facet normal 0 -2.22045e-16 -1
    outer loop
      vertex -24 0 6.21725e-15
      vertex -15.4357 4.12312 5.30173e-15
      vertex 0 0 6.21725e-15
    endloop
  endfacet
  facet normal 0 -2.22045e-16 -1
    outer loop
      vertex -15.4357 4.12312 5.30173e-15
      vertex -24 0 6.21725e-15
      vertex -17 4 5.32907e-15
    endloop
  endfacet
  facet normal 0 -2.22045e-16 -1
    outer loop
      vertex -17 4 5.32907e-15
      vertex -24 0 6.21725e-15
      vertex -18.5643 4.12312 5.30173e-15
    endloop
  endfacet
  facet normal 0 -2.22045e-16 -1
    outer loop
      vertex -24 0 6.21725e-15
      vertex -20.0902 4.48944 5.22039e-15
      vertex -18.5643 4.12312 5.30173e-15
    endloop
  endfacet
  facet normal 0 -2.22045e-16 -1
    outer loop
      vertex -24 0 6.21725e-15
      vertex -21.5399 5.08994 5.08706e-15
      vertex -20.0902 4.48944 5.22039e-15
    endloop
  endfacet
  facet normal 0 -2.22045e-16 -1
    outer loop
      vertex -24 0 6.21725e-15
      vertex -22.8779 5.90983 4.905e-15
      vertex -21.5399 5.08994 5.08706e-15
    endloop
  endfacet
  facet normal 0 -2.22045e-16 -1
    outer loop
      vertex -24 0 6.21725e-15
      vertex -24.0711 6.92893 4.67872e-15
      vertex -22.8779 5.90983 4.905e-15
    endloop
  endfacet
  facet normal 0 -2.22045e-16 -1
    outer loop
      vertex -32 8 4.44089e-15
      vertex -24.0711 6.92893 4.67872e-15
      vertex -24 0 6.21725e-15
    endloop
  endfacet
  facet normal 2.70996e-23 -2.22044e-16 -1
    outer loop
      vertex -24.0711 6.92893 4.67872e-15
      vertex -32 8 4.44089e-15
      vertex -25.0902 8.12215 4.41377e-15
    endloop
  endfacet
  facet normal 3.03175e-23 -2.22045e-16 -1
    outer loop
      vertex -25.0902 8.12215 4.41377e-15
      vertex -32 8 4.44089e-15
      vertex -25.9101 9.4601 4.11669e-15
    endloop
  endfacet
  facet normal 6.34873e-23 -2.22045e-16 -1
    outer loop
      vertex -25.9101 9.4601 4.11669e-15
      vertex -32 8 4.44089e-15
      vertex -26.5106 10.9098 3.79478e-15
    endloop
  endfacet
  facet normal 0 -2.22045e-16 -1
    outer loop
      vertex -26.8769 12.4357 3.45598e-15
      vertex -32 8 4.44089e-15
      vertex -27 14 3.10862e-15
    endloop
  endfacet
  facet normal 0 -2.22045e-16 -1
    outer loop
      vertex -26.5106 10.9098 3.79478e-15
      vertex -32 8 4.44089e-15
      vertex -26.8769 12.4357 3.45598e-15
    endloop
  endfacet
  facet normal 0 -2.22045e-16 -1
    outer loop
      vertex -7.12312 15.5643 2.76127e-15
      vertex 0 28 0
      vertex -7 14 3.10862e-15
    endloop
  endfacet
  facet normal -1.7073e-22 -2.22045e-16 -1
    outer loop
      vertex -7.48943 17.0902 2.42247e-15
      vertex 0 28 0
      vertex -7.12312 15.5643 2.76127e-15
    endloop
  endfacet
  facet normal 1.1507e-22 -2.22045e-16 -1
    outer loop
      vertex -8.08993 18.5399 2.10056e-15
      vertex 0 28 0
      vertex -7.48943 17.0902 2.42247e-15
    endloop
  endfacet
  facet normal 0 -2.22045e-16 -1
    outer loop
      vertex -8.90983 19.8779 1.80348e-15
      vertex 0 28 0
      vertex -8.08993 18.5399 2.10056e-15
    endloop
  endfacet
  facet normal 9.09601e-23 -2.22045e-16 -1
    outer loop
      vertex -9.92893 21.0711 1.53853e-15
      vertex 0 28 0
      vertex -8.90983 19.8779 1.80348e-15
    endloop
  endfacet
  facet normal -1.47866e-22 -2.22044e-16 -1
    outer loop
      vertex -11.1221 22.0902 1.31225e-15
      vertex 0 28 0
      vertex -9.92893 21.0711 1.53853e-15
    endloop
  endfacet
  facet normal 1.36808e-22 -2.22045e-16 -1
    outer loop
      vertex -12.4601 22.9101 1.13019e-15
      vertex 0 28 0
      vertex -11.1221 22.0902 1.31225e-15
    endloop
  endfacet
  facet normal -1.36496e-22 -2.22044e-16 -1
    outer loop
      vertex -13.9098 23.5106 9.96855e-16
      vertex 0 28 0
      vertex -12.4601 22.9101 1.13019e-15
    endloop
  endfacet
  facet normal -6.49372e-24 -2.22045e-16 -1
    outer loop
      vertex -15.4357 23.8769 9.15516e-16
      vertex 0 28 0
      vertex -13.9098 23.5106 9.96855e-16
    endloop
  endfacet
  facet normal 1.57353e-22 -2.22044e-16 -1
    outer loop
      vertex -23.8683 27.8683 2.92493e-17
      vertex -15.4357 23.8769 9.15516e-16
      vertex -17 24 8.88178e-16
    endloop
  endfacet
  facet normal -1.18769e-22 -2.22045e-16 -1
    outer loop
      vertex -23.8683 27.8683 2.92493e-17
      vertex -17 24 8.88178e-16
      vertex -18.5643 23.8769 9.15516e-16
    endloop
  endfacet
  facet normal -2.6613e-22 -2.22045e-16 -1
    outer loop
      vertex -23.8683 27.8683 2.92493e-17
      vertex -21.5399 22.9101 1.13019e-15
      vertex -22.8779 22.0902 1.31225e-15
    endloop
  endfacet
  facet normal 2.29753e-22 -2.22044e-16 -1
    outer loop
      vertex -23.8683 27.8683 2.92493e-17
      vertex -20.0902 23.5106 9.96855e-16
      vertex -21.5399 22.9101 1.13019e-15
    endloop
  endfacet
  facet normal 9.65642e-24 -2.22045e-16 -1
    outer loop
      vertex -23.8683 27.8683 2.92493e-17
      vertex -18.5643 23.8769 9.15516e-16
      vertex -20.0902 23.5106 9.96855e-16
    endloop
  endfacet
  facet normal 4.76807e-23 -2.22045e-16 -1
    outer loop
      vertex -15.4357 23.8769 9.15516e-16
      vertex -23.8683 27.8683 2.92493e-17
      vertex -24 28 0
    endloop
  endfacet
  facet normal 0 -2.22045e-16 -1
    outer loop
      vertex -15.4357 23.8769 9.15516e-16
      vertex -24 28 0
      vertex 0 28 0
    endloop
  endfacet
  facet normal 0 1 -0
    outer loop
      vertex 0 28 0
      vertex -24 28 6
      vertex 0 28 6
    endloop
  endfacet
  facet normal 0 1 0
    outer loop
      vertex -24 28 6
      vertex 0 28 0
      vertex -24 28 0
    endloop
  endfacet
  facet normal -1 0 0
    outer loop
      vertex -32 8 4.44089e-15
      vertex -32 19.7365 6
      vertex -32 19.7365 1.83486e-15
    endloop
  endfacet
  facet normal -1 -0 0
    outer loop
      vertex -32 19.7365 6
      vertex -32 8 4.44089e-15
      vertex -32 8 6
    endloop
  endfacet
  facet normal -0.996917 0.078459 0
    outer loop
      vertex -7.12312 12.4357 3.45598e-15
      vertex -7 14 6
      vertex -7 14 3.10862e-15
    endloop
  endfacet
  facet normal -0.996917 0.078459 0
    outer loop
      vertex -7 14 6
      vertex -7.12312 12.4357 3.45598e-15
      vertex -7.12312 12.4357 6
    endloop
  endfacet
  facet normal -0.923879 0.382684 0
    outer loop
      vertex -8.08993 9.4601 4.11669e-15
      vertex -7.48943 10.9098 6
      vertex -7.48943 10.9098 3.79478e-15
    endloop
  endfacet
  facet normal -0.923879 0.382684 0
    outer loop
      vertex -7.48943 10.9098 6
      vertex -8.08993 9.4601 4.11669e-15
      vertex -8.08993 9.4601 6
    endloop
  endfacet
  facet normal -0.382684 0.923879 0
    outer loop
      vertex -12.4601 5.08994 6
      vertex -13.9098 4.48944 5.22039e-15
      vertex -13.9098 4.48944 6
    endloop
  endfacet
  facet normal -0.382684 0.923879 0
    outer loop
      vertex -13.9098 4.48944 5.22039e-15
      vertex -12.4601 5.08994 6
      vertex -12.4601 5.08994 5.08706e-15
    endloop
  endfacet
  facet normal 0.233445 0.97237 -0
    outer loop
      vertex -18.5643 4.12312 5.30173e-15
      vertex -20.0902 4.48944 6
      vertex -18.5643 4.12312 6
    endloop
  endfacet
  facet normal 0.233445 0.97237 0
    outer loop
      vertex -20.0902 4.48944 6
      vertex -18.5643 4.12312 5.30173e-15
      vertex -20.0902 4.48944 5.22039e-15
    endloop
  endfacet
  facet normal 0.923879 0.382684 0
    outer loop
      vertex -25.9101 9.4601 6
      vertex -26.5106 10.9098 3.79478e-15
      vertex -26.5106 10.9098 6
    endloop
  endfacet
  facet normal 0.923879 0.382684 0
    outer loop
      vertex -26.5106 10.9098 3.79478e-15
      vertex -25.9101 9.4601 6
      vertex -25.9101 9.4601 4.11669e-15
    endloop
  endfacet
  facet normal 0.382683 0.92388 -0
    outer loop
      vertex -20.0902 4.48944 5.22039e-15
      vertex -21.5399 5.08994 6
      vertex -20.0902 4.48944 6
    endloop
  endfacet
  facet normal 0.382683 0.92388 0
    outer loop
      vertex -21.5399 5.08994 6
      vertex -20.0902 4.48944 5.22039e-15
      vertex -21.5399 5.08994 5.08706e-15
    endloop
  endfacet
  facet normal -0.760406 0.649448 0
    outer loop
      vertex -9.92893 6.92893 4.67872e-15
      vertex -8.90983 8.12215 6
      vertex -8.90983 8.12215 4.41377e-15
    endloop
  endfacet
  facet normal -0.760406 0.649448 0
    outer loop
      vertex -8.90983 8.12215 6
      vertex -9.92893 6.92893 4.67872e-15
      vertex -9.92893 6.92893 6
    endloop
  endfacet
  facet normal -0.85264 0.522498 0
    outer loop
      vertex -8.90983 8.12215 4.41377e-15
      vertex -8.08993 9.4601 6
      vertex -8.08993 9.4601 4.11669e-15
    endloop
  endfacet
  facet normal -0.85264 0.522498 0
    outer loop
      vertex -8.08993 9.4601 6
      vertex -8.90983 8.12215 4.41377e-15
      vertex -8.90983 8.12215 6
    endloop
  endfacet
  facet normal -0.0784596 0.996917 0
    outer loop
      vertex -15.4357 4.12312 6
      vertex -17 4 5.32907e-15
      vertex -17 4 6
    endloop
  endfacet
  facet normal -0.0784596 0.996917 0
    outer loop
      vertex -17 4 5.32907e-15
      vertex -15.4357 4.12312 6
      vertex -15.4357 4.12312 5.30173e-15
    endloop
  endfacet
  facet normal 0.996917 0.0784596 0
    outer loop
      vertex -26.8769 12.4357 6
      vertex -27 14 3.10862e-15
      vertex -27 14 6
    endloop
  endfacet
  facet normal 0.996917 0.0784596 0
    outer loop
      vertex -27 14 3.10862e-15
      vertex -26.8769 12.4357 6
      vertex -26.8769 12.4357 3.45598e-15
    endloop
  endfacet
  facet normal 0.760406 0.649448 0
    outer loop
      vertex -24.0711 6.92893 6
      vertex -25.0902 8.12215 4.41377e-15
      vertex -25.0902 8.12215 6
    endloop
  endfacet
  facet normal 0.760406 0.649448 0
    outer loop
      vertex -25.0902 8.12215 4.41377e-15
      vertex -24.0711 6.92893 6
      vertex -24.0711 6.92893 4.67872e-15
    endloop
  endfacet
  facet normal 0.97237 0.233445 0
    outer loop
      vertex -26.5106 10.9098 6
      vertex -26.8769 12.4357 3.45598e-15
      vertex -26.8769 12.4357 6
    endloop
  endfacet
  facet normal 0.97237 0.233445 0
    outer loop
      vertex -26.8769 12.4357 3.45598e-15
      vertex -26.5106 10.9098 6
      vertex -26.5106 10.9098 3.79478e-15
    endloop
  endfacet
  facet normal 0.649448 0.760406 -0
    outer loop
      vertex -22.8779 5.90983 4.905e-15
      vertex -24.0711 6.92893 6
      vertex -22.8779 5.90983 6
    endloop
  endfacet
  facet normal 0.649448 0.760406 0
    outer loop
      vertex -24.0711 6.92893 6
      vertex -22.8779 5.90983 4.905e-15
      vertex -24.0711 6.92893 4.67872e-15
    endloop
  endfacet
  facet normal -0.97237 0.233445 0
    outer loop
      vertex -7.48943 10.9098 3.79478e-15
      vertex -7.12312 12.4357 6
      vertex -7.12312 12.4357 3.45598e-15
    endloop
  endfacet
  facet normal -0.97237 0.233445 0
    outer loop
      vertex -7.12312 12.4357 6
      vertex -7.48943 10.9098 3.79478e-15
      vertex -7.48943 10.9098 6
    endloop
  endfacet
  facet normal -0.233445 0.97237 0
    outer loop
      vertex -13.9098 4.48944 6
      vertex -15.4357 4.12312 5.30173e-15
      vertex -15.4357 4.12312 6
    endloop
  endfacet
  facet normal -0.233445 0.97237 0
    outer loop
      vertex -15.4357 4.12312 5.30173e-15
      vertex -13.9098 4.48944 6
      vertex -13.9098 4.48944 5.22039e-15
    endloop
  endfacet
  facet normal -0.649448 0.760406 0
    outer loop
      vertex -9.92893 6.92893 6
      vertex -11.1221 5.90983 4.905e-15
      vertex -11.1221 5.90983 6
    endloop
  endfacet
  facet normal -0.649448 0.760406 0
    outer loop
      vertex -11.1221 5.90983 4.905e-15
      vertex -9.92893 6.92893 6
      vertex -9.92893 6.92893 4.67872e-15
    endloop
  endfacet
  facet normal 0.522498 0.85264 -0
    outer loop
      vertex -21.5399 5.08994 5.08706e-15
      vertex -22.8779 5.90983 6
      vertex -21.5399 5.08994 6
    endloop
  endfacet
  facet normal 0.522498 0.85264 0
    outer loop
      vertex -22.8779 5.90983 6
      vertex -21.5399 5.08994 5.08706e-15
      vertex -22.8779 5.90983 4.905e-15
    endloop
  endfacet
  facet normal -0.996917 -0.078459 0
    outer loop
      vertex -7 14 3.10862e-15
      vertex -7.12312 15.5643 6
      vertex -7.12312 15.5643 2.76127e-15
    endloop
  endfacet
  facet normal -0.996917 -0.078459 0
    outer loop
      vertex -7.12312 15.5643 6
      vertex -7 14 3.10862e-15
      vertex -7 14 6
    endloop
  endfacet
  facet normal 0.0784584 -0.996917 0
    outer loop
      vertex -18.5643 23.8769 9.15516e-16
      vertex -17 24 6
      vertex -18.5643 23.8769 6
    endloop
  endfacet
  facet normal 0.0784584 -0.996917 0
    outer loop
      vertex -17 24 6
      vertex -18.5643 23.8769 9.15516e-16
      vertex -17 24 8.88178e-16
    endloop
  endfacet
  facet normal 0.996917 -0.0784596 0
    outer loop
      vertex -27 14 6
      vertex -26.8769 15.5643 2.76127e-15
      vertex -26.8769 15.5643 6
    endloop
  endfacet
  facet normal 0.996917 -0.0784596 0
    outer loop
      vertex -26.8769 15.5643 2.76127e-15
      vertex -27 14 6
      vertex -27 14 3.10862e-15
    endloop
  endfacet
  facet normal 0.760406 -0.649448 0
    outer loop
      vertex -25.0902 19.8779 6
      vertex -24.0711 21.0711 1.53853e-15
      vertex -24.0711 21.0711 6
    endloop
  endfacet
  facet normal 0.760406 -0.649448 0
    outer loop
      vertex -24.0711 21.0711 1.53853e-15
      vertex -25.0902 19.8779 6
      vertex -25.0902 19.8779 1.80348e-15
    endloop
  endfacet
  facet normal 0.97237 -0.233445 0
    outer loop
      vertex -26.8769 15.5643 6
      vertex -26.5106 17.0902 2.42247e-15
      vertex -26.5106 17.0902 6
    endloop
  endfacet
  facet normal 0.97237 -0.233445 0
    outer loop
      vertex -26.5106 17.0902 2.42247e-15
      vertex -26.8769 15.5643 6
      vertex -26.8769 15.5643 2.76127e-15
    endloop
  endfacet
  facet normal 0.923879 -0.382684 0
    outer loop
      vertex -26.5106 17.0902 6
      vertex -25.9101 18.5399 2.10056e-15
      vertex -25.9101 18.5399 6
    endloop
  endfacet
  facet normal 0.923879 -0.382684 0
    outer loop
      vertex -25.9101 18.5399 2.10056e-15
      vertex -26.5106 17.0902 6
      vertex -26.5106 17.0902 2.42247e-15
    endloop
  endfacet
  facet normal -0.923879 -0.382684 0
    outer loop
      vertex -7.48943 17.0902 2.42247e-15
      vertex -8.08993 18.5399 6
      vertex -8.08993 18.5399 2.10056e-15
    endloop
  endfacet
  facet normal -0.923879 -0.382684 0
    outer loop
      vertex -8.08993 18.5399 6
      vertex -7.48943 17.0902 2.42247e-15
      vertex -7.48943 17.0902 6
    endloop
  endfacet
  facet normal -0.85264 -0.522498 0
    outer loop
      vertex -8.08993 18.5399 2.10056e-15
      vertex -8.90983 19.8779 6
      vertex -8.90983 19.8779 1.80348e-15
    endloop
  endfacet
  facet normal -0.85264 -0.522498 0
    outer loop
      vertex -8.90983 19.8779 6
      vertex -8.08993 18.5399 2.10056e-15
      vertex -8.08993 18.5399 6
    endloop
  endfacet
  facet normal -0.0784584 -0.996917 0
    outer loop
      vertex -17 24 6
      vertex -15.4357 23.8769 9.15516e-16
      vertex -15.4357 23.8769 6
    endloop
  endfacet
  facet normal -0.0784584 -0.996917 0
    outer loop
      vertex -15.4357 23.8769 9.15516e-16
      vertex -17 24 6
      vertex -17 24 8.88178e-16
    endloop
  endfacet
  facet normal -0.233445 -0.97237 0
    outer loop
      vertex -15.4357 23.8769 6
      vertex -13.9098 23.5106 9.96855e-16
      vertex -13.9098 23.5106 6
    endloop
  endfacet
  facet normal -0.233445 -0.97237 0
    outer loop
      vertex -13.9098 23.5106 9.96855e-16
      vertex -15.4357 23.8769 6
      vertex -15.4357 23.8769 9.15516e-16
    endloop
  endfacet
  facet normal -0.522498 0.85264 0
    outer loop
      vertex -11.1221 5.90983 6
      vertex -12.4601 5.08994 5.08706e-15
      vertex -12.4601 5.08994 6
    endloop
  endfacet
  facet normal -0.522498 0.85264 0
    outer loop
      vertex -12.4601 5.08994 5.08706e-15
      vertex -11.1221 5.90983 6
      vertex -11.1221 5.90983 4.905e-15
    endloop
  endfacet
  facet normal 0.0784596 0.996917 -0
    outer loop
      vertex -17 4 5.32907e-15
      vertex -18.5643 4.12312 6
      vertex -17 4 6
    endloop
  endfacet
  facet normal 0.0784596 0.996917 0
    outer loop
      vertex -18.5643 4.12312 6
      vertex -17 4 5.32907e-15
      vertex -18.5643 4.12312 5.30173e-15
    endloop
  endfacet
  facet normal -0.649449 -0.760405 0
    outer loop
      vertex -11.1221 22.0902 6
      vertex -9.92893 21.0711 1.53853e-15
      vertex -9.92893 21.0711 6
    endloop
  endfacet
  facet normal -0.649449 -0.760405 0
    outer loop
      vertex -9.92893 21.0711 1.53853e-15
      vertex -11.1221 22.0902 6
      vertex -11.1221 22.0902 1.31225e-15
    endloop
  endfacet
  facet normal 0.233445 -0.97237 0
    outer loop
      vertex -20.0902 23.5106 9.96855e-16
      vertex -18.5643 23.8769 6
      vertex -20.0902 23.5106 6
    endloop
  endfacet
  facet normal 0.233445 -0.97237 0
    outer loop
      vertex -18.5643 23.8769 6
      vertex -20.0902 23.5106 9.96855e-16
      vertex -18.5643 23.8769 9.15516e-16
    endloop
  endfacet
  facet normal -0.97237 -0.233445 0
    outer loop
      vertex -7.12312 15.5643 2.76127e-15
      vertex -7.48943 17.0902 6
      vertex -7.48943 17.0902 2.42247e-15
    endloop
  endfacet
  facet normal -0.97237 -0.233445 0
    outer loop
      vertex -7.48943 17.0902 6
      vertex -7.12312 15.5643 2.76127e-15
      vertex -7.12312 15.5643 6
    endloop
  endfacet
  facet normal -0.522497 -0.852641 0
    outer loop
      vertex -12.4601 22.9101 6
      vertex -11.1221 22.0902 1.31225e-15
      vertex -11.1221 22.0902 6
    endloop
  endfacet
  facet normal -0.522497 -0.852641 0
    outer loop
      vertex -11.1221 22.0902 1.31225e-15
      vertex -12.4601 22.9101 6
      vertex -12.4601 22.9101 1.13019e-15
    endloop
  endfacet
  facet normal -0.382685 -0.923879 0
    outer loop
      vertex -13.9098 23.5106 6
      vertex -12.4601 22.9101 1.13019e-15
      vertex -12.4601 22.9101 6
    endloop
  endfacet
  facet normal -0.382685 -0.923879 0
    outer loop
      vertex -12.4601 22.9101 1.13019e-15
      vertex -13.9098 23.5106 6
      vertex -13.9098 23.5106 9.96855e-16
    endloop
  endfacet
  facet normal 0.85264 0.522498 0
    outer loop
      vertex -25.0902 8.12215 6
      vertex -25.9101 9.4601 4.11669e-15
      vertex -25.9101 9.4601 6
    endloop
  endfacet
  facet normal 0.85264 0.522498 0
    outer loop
      vertex -25.9101 9.4601 4.11669e-15
      vertex -25.0902 8.12215 6
      vertex -25.0902 8.12215 4.41377e-15
    endloop
  endfacet
  facet normal -0.760406 -0.649448 0
    outer loop
      vertex -8.90983 19.8779 1.80348e-15
      vertex -9.92893 21.0711 6
      vertex -9.92893 21.0711 1.53853e-15
    endloop
  endfacet
  facet normal -0.760406 -0.649448 0
    outer loop
      vertex -9.92893 21.0711 6
      vertex -8.90983 19.8779 1.80348e-15
      vertex -8.90983 19.8779 6
    endloop
  endfacet
  facet normal 0.522497 -0.852641 0
    outer loop
      vertex -22.8779 22.0902 1.31225e-15
      vertex -21.5399 22.9101 6
      vertex -22.8779 22.0902 6
    endloop
  endfacet
  facet normal 0.522497 -0.852641 0
    outer loop
      vertex -21.5399 22.9101 6
      vertex -22.8779 22.0902 1.31225e-15
      vertex -21.5399 22.9101 1.13019e-15
    endloop
  endfacet
  facet normal 0.382684 -0.923879 0
    outer loop
      vertex -21.5399 22.9101 1.13019e-15
      vertex -20.0902 23.5106 6
      vertex -21.5399 22.9101 6
    endloop
  endfacet
  facet normal 0.382684 -0.923879 0
    outer loop
      vertex -20.0902 23.5106 6
      vertex -21.5399 22.9101 1.13019e-15
      vertex -20.0902 23.5106 9.96855e-16
    endloop
  endfacet
  facet normal 0.649449 -0.760405 0
    outer loop
      vertex -24.0711 21.0711 1.53853e-15
      vertex -22.8779 22.0902 6
      vertex -24.0711 21.0711 6
    endloop
  endfacet
  facet normal 0.649449 -0.760405 0
    outer loop
      vertex -22.8779 22.0902 6
      vertex -24.0711 21.0711 1.53853e-15
      vertex -22.8779 22.0902 1.31225e-15
    endloop
  endfacet
  facet normal 0.85264 -0.522498 0
    outer loop
      vertex -25.9101 18.5399 6
      vertex -25.0902 19.8779 1.80348e-15
      vertex -25.0902 19.8779 6
    endloop
  endfacet
  facet normal 0.85264 -0.522498 0
    outer loop
      vertex -25.0902 19.8779 1.80348e-15
      vertex -25.9101 18.5399 6
      vertex -25.9101 18.5399 2.10056e-15
    endloop
  endfacet
  facet normal -0.707107 0.707107 0
    outer loop
      vertex -23.8683 27.8683 6
      vertex -32 19.7365 1.83486e-15
      vertex -32 19.7365 6
    endloop
  endfacet
  facet normal -0.707107 0.707107 0
    outer loop
      vertex -32 19.7365 1.83486e-15
      vertex -23.8683 27.8683 6
      vertex -23.8683 27.8683 2.92493e-17
    endloop
  endfacet
  facet normal -0.707102 -0.707112 0
    outer loop
      vertex -24 28 6
      vertex -23.8683 27.8683 2.92493e-17
      vertex -23.8683 27.8683 6
    endloop
  endfacet
  facet normal -0.707102 -0.707112 0
    outer loop
      vertex -23.8683 27.8683 2.92493e-17
      vertex -24 28 6
      vertex -24 28 0
    endloop
  endfacet
  facet normal -0.707107 -0.707107 0
    outer loop
      vertex -32 8 4.44089e-15
      vertex -24 1.33227e-15 6
      vertex -32 8 6
    endloop
  endfacet
  facet normal -0.707107 -0.707107 1.57009e-16
    outer loop
      vertex -24 1.33227e-15 6
      vertex -32 8 4.44089e-15
      vertex -24 0 6.21725e-15
    endloop
  endfacet
endsolid OpenSCAD_Model
