solid OpenSCAD_Model
  facet normal 0 1 0
    outer loop
      vertex 38.15 16.5 28
      vertex 24.25 16.5 26
      vertex 10.15 16.5 28
    endloop
  endfacet
  facet normal 0 1 0
    outer loop
      vertex 38.15 16.5 28
      vertex 25.8143 16.5 25.8769
      vertex 24.25 16.5 26
    endloop
  endfacet
  facet normal 0 1 0
    outer loop
      vertex 38.15 16.5 28
      vertex 27.3402 16.5 25.5106
      vertex 25.8143 16.5 25.8769
    endloop
  endfacet
  facet normal 0 1 0
    outer loop
      vertex 38.15 16.5 28
      vertex 28.7899 16.5 24.9101
      vertex 27.3402 16.5 25.5106
    endloop
  endfacet
  facet normal 0 1 0
    outer loop
      vertex 38.15 16.5 28
      vertex 30.1279 16.5 24.0902
      vertex 28.7899 16.5 24.9101
    endloop
  endfacet
  facet normal 0 1 0
    outer loop
      vertex 38.15 16.5 28
      vertex 31.3211 16.5 23.0711
      vertex 30.1279 16.5 24.0902
    endloop
  endfacet
  facet normal 0 1 0
    outer loop
      vertex 38.15 16.5 28
      vertex 32.3402 16.5 21.8779
      vertex 31.3211 16.5 23.0711
    endloop
  endfacet
  facet normal 0 1 0
    outer loop
      vertex 38.15 16.5 28
      vertex 33.1601 16.5 20.5399
      vertex 32.3402 16.5 21.8779
    endloop
  endfacet
  facet normal 0 1 0
    outer loop
      vertex 38.15 16.5 28
      vertex 33.7606 16.5 19.0902
      vertex 33.1601 16.5 20.5399
    endloop
  endfacet
  facet normal 0 1 0
    outer loop
      vertex 38.15 16.5 28
      vertex 34.1269 16.5 17.5643
      vertex 33.7606 16.5 19.0902
    endloop
  endfacet
  facet normal 0 1 0
    outer loop
      vertex 38.15 16.5 28
      vertex 34.25 16.5 16
      vertex 34.1269 16.5 17.5643
    endloop
  endfacet
  facet normal 0 1 -0
    outer loop
      vertex 38.15 16.5 0
      vertex 34.25 16.5 16
      vertex 38.15 16.5 28
    endloop
  endfacet
  facet normal 0 1 0
    outer loop
      vertex 34.25 16.5 16
      vertex 38.15 16.5 0
      vertex 34.1269 16.5 14.4357
    endloop
  endfacet
  facet normal 0 1 0
    outer loop
      vertex 25.8143 16.5 6.12312
      vertex 38.15 16.5 0
      vertex 24.25 16.5 6
    endloop
  endfacet
  facet normal 0 1 0
    outer loop
      vertex 27.3402 16.5 6.48943
      vertex 38.15 16.5 0
      vertex 25.8143 16.5 6.12312
    endloop
  endfacet
  facet normal 0 1 0
    outer loop
      vertex 28.7899 16.5 7.08993
      vertex 38.15 16.5 0
      vertex 27.3402 16.5 6.48943
    endloop
  endfacet
  facet normal 0 1 0
    outer loop
      vertex 30.1279 16.5 7.90983
      vertex 38.15 16.5 0
      vertex 28.7899 16.5 7.08993
    endloop
  endfacet
  facet normal 0 1 0
    outer loop
      vertex 31.3211 16.5 8.92893
      vertex 38.15 16.5 0
      vertex 30.1279 16.5 7.90983
    endloop
  endfacet
  facet normal 0 1 0
    outer loop
      vertex 32.3402 16.5 10.1221
      vertex 38.15 16.5 0
      vertex 31.3211 16.5 8.92893
    endloop
  endfacet
  facet normal 0 1 0
    outer loop
      vertex 33.1601 16.5 11.4601
      vertex 38.15 16.5 0
      vertex 32.3402 16.5 10.1221
    endloop
  endfacet
  facet normal 0 1 0
    outer loop
      vertex 33.7606 16.5 12.9098
      vertex 38.15 16.5 0
      vertex 33.1601 16.5 11.4601
    endloop
  endfacet
  facet normal 0 1 0
    outer loop
      vertex 34.1269 16.5 14.4357
      vertex 38.15 16.5 0
      vertex 33.7606 16.5 12.9098
    endloop
  endfacet
  facet normal 0 1 -0
    outer loop
      vertex 22.6857 16.5 25.8769
      vertex 10.15 16.5 28
      vertex 24.25 16.5 26
    endloop
  endfacet
  facet normal 0 1 -0
    outer loop
      vertex 21.1598 16.5 25.5106
      vertex 10.15 16.5 28
      vertex 22.6857 16.5 25.8769
    endloop
  endfacet
  facet normal 0 1 -0
    outer loop
      vertex 19.7101 16.5 24.9101
      vertex 10.15 16.5 28
      vertex 21.1598 16.5 25.5106
    endloop
  endfacet
  facet normal 0 1 -0
    outer loop
      vertex 18.3721 16.5 24.0902
      vertex 10.15 16.5 28
      vertex 19.7101 16.5 24.9101
    endloop
  endfacet
  facet normal 0 1 -0
    outer loop
      vertex 17.1789 16.5 23.0711
      vertex 10.15 16.5 28
      vertex 18.3721 16.5 24.0902
    endloop
  endfacet
  facet normal 0 1 -0
    outer loop
      vertex 16.1598 16.5 21.8779
      vertex 10.15 16.5 28
      vertex 17.1789 16.5 23.0711
    endloop
  endfacet
  facet normal 0 1 -0
    outer loop
      vertex 15.3399 16.5 20.5399
      vertex 10.15 16.5 28
      vertex 16.1598 16.5 21.8779
    endloop
  endfacet
  facet normal 0 1 -0
    outer loop
      vertex 14.7394 16.5 19.0902
      vertex 10.15 16.5 28
      vertex 15.3399 16.5 20.5399
    endloop
  endfacet
  facet normal 0 1 -0
    outer loop
      vertex 14.3731 16.5 17.5643
      vertex 10.15 16.5 28
      vertex 14.7394 16.5 19.0902
    endloop
  endfacet
  facet normal 0 1 -0
    outer loop
      vertex 14.25 16.5 16
      vertex 10.15 16.5 28
      vertex 14.3731 16.5 17.5643
    endloop
  endfacet
  facet normal 0 1 0
    outer loop
      vertex 10.15 16.5 0
      vertex 14.25 16.5 16
      vertex 14.3731 16.5 14.4357
    endloop
  endfacet
  facet normal 0 1 0
    outer loop
      vertex 10.15 16.5 0
      vertex 14.3731 16.5 14.4357
      vertex 14.7394 16.5 12.9098
    endloop
  endfacet
  facet normal 0 1 0
    outer loop
      vertex 10.15 16.5 0
      vertex 24.25 16.5 6
      vertex 38.15 16.5 0
    endloop
  endfacet
  facet normal 0 1 0
    outer loop
      vertex 24.25 16.5 6
      vertex 10.15 16.5 0
      vertex 22.6857 16.5 6.12312
    endloop
  endfacet
  facet normal 0 1 0
    outer loop
      vertex 14.25 16.5 16
      vertex 10.15 16.5 0
      vertex 10.15 16.5 28
    endloop
  endfacet
  facet normal 0 1 0
    outer loop
      vertex 15.3399 16.5 11.4601
      vertex 10.15 16.5 0
      vertex 14.7394 16.5 12.9098
    endloop
  endfacet
  facet normal 0 1 0
    outer loop
      vertex 16.1598 16.5 10.1221
      vertex 10.15 16.5 0
      vertex 15.3399 16.5 11.4601
    endloop
  endfacet
  facet normal 0 1 0
    outer loop
      vertex 17.1789 16.5 8.92893
      vertex 10.15 16.5 0
      vertex 16.1598 16.5 10.1221
    endloop
  endfacet
  facet normal 0 1 0
    outer loop
      vertex 18.3721 16.5 7.90983
      vertex 10.15 16.5 0
      vertex 17.1789 16.5 8.92893
    endloop
  endfacet
  facet normal 0 1 0
    outer loop
      vertex 19.7101 16.5 7.08993
      vertex 10.15 16.5 0
      vertex 18.3721 16.5 7.90983
    endloop
  endfacet
  facet normal 0 1 0
    outer loop
      vertex 21.1598 16.5 6.48943
      vertex 10.15 16.5 0
      vertex 19.7101 16.5 7.08993
    endloop
  endfacet
  facet normal 0 1 0
    outer loop
      vertex 22.6857 16.5 6.12312
      vertex 10.15 16.5 0
      vertex 21.1598 16.5 6.48943
    endloop
  endfacet
  facet normal 0 0 1
    outer loop
      vertex 35.4 12.5 4
      vertex 32.6 2.5 4
      vertex 35.4 -3.5 4
    endloop
  endfacet
  facet normal 0 0 1
    outer loop
      vertex 35.4 12.5 4
      vertex 32.4617 3.15078 4
      vertex 32.6 2.5 4
    endloop
  endfacet
  facet normal 0 0 1
    outer loop
      vertex 35.4 12.5 4
      vertex 32.0706 3.68903 4
      vertex 32.4617 3.15078 4
    endloop
  endfacet
  facet normal 0 0 1
    outer loop
      vertex 35.4 12.5 4
      vertex 31.4944 4.02169 4
      vertex 32.0706 3.68903 4
    endloop
  endfacet
  facet normal 0 0 1
    outer loop
      vertex 35.4 12.5 4
      vertex 30.8328 4.09123 4
      vertex 31.4944 4.02169 4
    endloop
  endfacet
  facet normal 0 0 1
    outer loop
      vertex 35.4 12.5 4
      vertex 30.2 3.88564 4
      vertex 30.8328 4.09123 4
    endloop
  endfacet
  facet normal 0 0 1
    outer loop
      vertex 13.4 12.5 4
      vertex 30.2 3.88564 4
      vertex 35.4 12.5 4
    endloop
  endfacet
  facet normal 0 0 1
    outer loop
      vertex 29.435 2.83266 4
      vertex 19.1 2.5 4
      vertex 29.435 2.16734 4
    endloop
  endfacet
  facet normal -0 0 1
    outer loop
      vertex 18.9617 3.15078 4
      vertex 29.435 2.83266 4
      vertex 29.7056 3.44046 4
    endloop
  endfacet
  facet normal 0 0 1
    outer loop
      vertex 30.2 3.88564 4
      vertex 18.5706 3.68903 4
      vertex 29.7056 3.44046 4
    endloop
  endfacet
  facet normal 0 0 1
    outer loop
      vertex 29.435 2.83266 4
      vertex 18.9617 3.15078 4
      vertex 19.1 2.5 4
    endloop
  endfacet
  facet normal 0 0 1
    outer loop
      vertex 29.7056 3.44046 4
      vertex 18.5706 3.68903 4
      vertex 18.9617 3.15078 4
    endloop
  endfacet
  facet normal 0 0 1
    outer loop
      vertex 30.2 3.88564 4
      vertex 13.4 12.5 4
      vertex 18.5706 3.68903 4
    endloop
  endfacet
  facet normal 0 0 1
    outer loop
      vertex 18.5706 3.68903 4
      vertex 13.4 12.5 4
      vertex 17.9944 4.02169 4
    endloop
  endfacet
  facet normal 0 0 1
    outer loop
      vertex 17.9944 4.02169 4
      vertex 13.4 12.5 4
      vertex 17.3328 4.09123 4
    endloop
  endfacet
  facet normal 0 0 1
    outer loop
      vertex 13.4 -3.5 4
      vertex 15.935 2.83266 4
      vertex 13.4 12.5 4
    endloop
  endfacet
  facet normal 0 0 1
    outer loop
      vertex 16.2056 3.44046 4
      vertex 13.4 12.5 4
      vertex 15.935 2.83266 4
    endloop
  endfacet
  facet normal 0 0 1
    outer loop
      vertex 16.7 3.88564 4
      vertex 13.4 12.5 4
      vertex 16.2056 3.44046 4
    endloop
  endfacet
  facet normal 0 0 1
    outer loop
      vertex 17.3328 4.09123 4
      vertex 13.4 12.5 4
      vertex 16.7 3.88564 4
    endloop
  endfacet
  facet normal -0 0 1
    outer loop
      vertex 32.4617 1.84922 4
      vertex 35.4 -3.5 4
      vertex 32.6 2.5 4
    endloop
  endfacet
  facet normal -0 0 1
    outer loop
      vertex 32.0706 1.31097 4
      vertex 35.4 -3.5 4
      vertex 32.4617 1.84922 4
    endloop
  endfacet
  facet normal -0 0 1
    outer loop
      vertex 31.4944 0.978309 4
      vertex 35.4 -3.5 4
      vertex 32.0706 1.31097 4
    endloop
  endfacet
  facet normal -0 0 1
    outer loop
      vertex 30.8328 0.908765 4
      vertex 35.4 -3.5 4
      vertex 31.4944 0.978309 4
    endloop
  endfacet
  facet normal 0 0 1
    outer loop
      vertex 30.2 1.11436 4
      vertex 35.4 -3.5 4
      vertex 30.8328 0.908765 4
    endloop
  endfacet
  facet normal 0 0 1
    outer loop
      vertex 18.9617 1.84922 4
      vertex 29.435 2.16734 4
      vertex 19.1 2.5 4
    endloop
  endfacet
  facet normal 0 0 1
    outer loop
      vertex 29.435 2.16734 4
      vertex 18.9617 1.84922 4
      vertex 29.7056 1.55954 4
    endloop
  endfacet
  facet normal 0 0 1
    outer loop
      vertex 18.5706 1.31097 4
      vertex 29.7056 1.55954 4
      vertex 18.9617 1.84922 4
    endloop
  endfacet
  facet normal 0 0 1
    outer loop
      vertex 29.7056 1.55954 4
      vertex 18.5706 1.31097 4
      vertex 30.2 1.11436 4
    endloop
  endfacet
  facet normal 0 0 1
    outer loop
      vertex 17.9944 0.978309 4
      vertex 30.2 1.11436 4
      vertex 18.5706 1.31097 4
    endloop
  endfacet
  facet normal 0 0 1
    outer loop
      vertex 13.4 -3.5 4
      vertex 30.2 1.11436 4
      vertex 17.9944 0.978309 4
    endloop
  endfacet
  facet normal 0 0 1
    outer loop
      vertex 13.4 -3.5 4
      vertex 17.9944 0.978309 4
      vertex 17.3328 0.908765 4
    endloop
  endfacet
  facet normal 0 0 1
    outer loop
      vertex 30.2 1.11436 4
      vertex 13.4 -3.5 4
      vertex 35.4 -3.5 4
    endloop
  endfacet
  facet normal 0 0 1
    outer loop
      vertex 16.7 1.11436 4
      vertex 13.4 -3.5 4
      vertex 17.3328 0.908765 4
    endloop
  endfacet
  facet normal 0 0 1
    outer loop
      vertex 16.2056 1.55954 4
      vertex 13.4 -3.5 4
      vertex 16.7 1.11436 4
    endloop
  endfacet
  facet normal 0 0 1
    outer loop
      vertex 15.935 2.16734 4
      vertex 13.4 -3.5 4
      vertex 16.2056 1.55954 4
    endloop
  endfacet
  facet normal 0 0 1
    outer loop
      vertex 15.935 2.83266 4
      vertex 13.4 -3.5 4
      vertex 15.935 2.16734 4
    endloop
  endfacet
  facet normal -1 0 0
    outer loop
      vertex 13.4 -3.5 0
      vertex 13.4 12.5 4
      vertex 13.4 12.5 0
    endloop
  endfacet
  facet normal -1 -0 0
    outer loop
      vertex 13.4 12.5 4
      vertex 13.4 -3.5 0
      vertex 13.4 -3.5 4
    endloop
  endfacet
  facet normal -4.33488e-08 -1 0
    outer loop
      vertex 13.4 -3.5 0
      vertex 35.4 -3.5 4
      vertex 13.4 -3.5 4
    endloop
  endfacet
  facet normal -4.33488e-08 -1 -0
    outer loop
      vertex 35.4 -3.5 4
      vertex 13.4 -3.5 0
      vertex 35.4 -3.5 0
    endloop
  endfacet
  facet normal 0 0 -1
    outer loop
      vertex 35.4 -3.5 0
      vertex 32.6 2.5 0
      vertex 35.4 12.5 0
    endloop
  endfacet
  facet normal 0 0 -1
    outer loop
      vertex 35.4 -3.5 0
      vertex 32.4617 1.84922 0
      vertex 32.6 2.5 0
    endloop
  endfacet
  facet normal 0 0 -1
    outer loop
      vertex 35.4 -3.5 0
      vertex 32.0706 1.31097 0
      vertex 32.4617 1.84922 0
    endloop
  endfacet
  facet normal 0 0 -1
    outer loop
      vertex 35.4 -3.5 0
      vertex 31.4944 0.978309 0
      vertex 32.0706 1.31097 0
    endloop
  endfacet
  facet normal 0 0 -1
    outer loop
      vertex 35.4 -3.5 0
      vertex 30.8328 0.908765 0
      vertex 31.4944 0.978309 0
    endloop
  endfacet
  facet normal 0 0 -1
    outer loop
      vertex 35.4 -3.5 0
      vertex 30.2 1.11436 0
      vertex 30.8328 0.908765 0
    endloop
  endfacet
  facet normal 0 0 -1
    outer loop
      vertex 29.435 2.16734 0
      vertex 19.1 2.5 0
      vertex 29.435 2.83266 0
    endloop
  endfacet
  facet normal 0 0 -1
    outer loop
      vertex 18.9617 1.84922 0
      vertex 29.435 2.16734 0
      vertex 29.7056 1.55954 0
    endloop
  endfacet
  facet normal 0 0 -1
    outer loop
      vertex 18.5706 1.31097 0
      vertex 29.7056 1.55954 0
      vertex 30.2 1.11436 0
    endloop
  endfacet
  facet normal 0 0 -1
    outer loop
      vertex 13.4 -3.5 0
      vertex 30.2 1.11436 0
      vertex 35.4 -3.5 0
    endloop
  endfacet
  facet normal -0 0 -1
    outer loop
      vertex 29.435 2.16734 0
      vertex 18.9617 1.84922 0
      vertex 19.1 2.5 0
    endloop
  endfacet
  facet normal -0 0 -1
    outer loop
      vertex 29.7056 1.55954 0
      vertex 18.5706 1.31097 0
      vertex 18.9617 1.84922 0
    endloop
  endfacet
  facet normal -0 0 -1
    outer loop
      vertex 30.2 1.11436 0
      vertex 17.9944 0.978309 0
      vertex 18.5706 1.31097 0
    endloop
  endfacet
  facet normal 0 0 -1
    outer loop
      vertex 30.2 1.11436 0
      vertex 13.4 -3.5 0
      vertex 17.9944 0.978309 0
    endloop
  endfacet
  facet normal -0 0 -1
    outer loop
      vertex 15.935 2.16734 0
      vertex 13.4 -3.5 0
      vertex 15.935 2.83266 0
    endloop
  endfacet
  facet normal -0 0 -1
    outer loop
      vertex 16.2056 1.55954 0
      vertex 13.4 -3.5 0
      vertex 15.935 2.16734 0
    endloop
  endfacet
  facet normal -0 0 -1
    outer loop
      vertex 16.7 1.11436 0
      vertex 13.4 -3.5 0
      vertex 16.2056 1.55954 0
    endloop
  endfacet
  facet normal -0 0 -1
    outer loop
      vertex 17.3328 0.908765 0
      vertex 13.4 -3.5 0
      vertex 16.7 1.11436 0
    endloop
  endfacet
  facet normal 0 0 -1
    outer loop
      vertex 17.9944 0.978309 0
      vertex 13.4 -3.5 0
      vertex 17.3328 0.908765 0
    endloop
  endfacet
  facet normal 0 0 -1
    outer loop
      vertex 35.4 12.5 0
      vertex 38.15 16.5 0
      vertex 38.15 12.5 0
    endloop
  endfacet
  facet normal 0 0 -1
    outer loop
      vertex 32.4617 3.15078 0
      vertex 35.4 12.5 0
      vertex 32.6 2.5 0
    endloop
  endfacet
  facet normal 0 0 -1
    outer loop
      vertex 32.0706 3.68903 0
      vertex 35.4 12.5 0
      vertex 32.4617 3.15078 0
    endloop
  endfacet
  facet normal 0 0 -1
    outer loop
      vertex 31.4944 4.02169 0
      vertex 35.4 12.5 0
      vertex 32.0706 3.68903 0
    endloop
  endfacet
  facet normal 0 0 -1
    outer loop
      vertex 30.8328 4.09123 0
      vertex 35.4 12.5 0
      vertex 31.4944 4.02169 0
    endloop
  endfacet
  facet normal 0 0 -1
    outer loop
      vertex 30.2 3.88564 0
      vertex 35.4 12.5 0
      vertex 30.8328 4.09123 0
    endloop
  endfacet
  facet normal 0 0 -1
    outer loop
      vertex 18.5706 3.68903 0
      vertex 30.2 3.88564 0
      vertex 29.7056 3.44046 0
    endloop
  endfacet
  facet normal 0 0 -1
    outer loop
      vertex 18.9617 3.15078 0
      vertex 29.435 2.83266 0
      vertex 19.1 2.5 0
    endloop
  endfacet
  facet normal 0 0 -1
    outer loop
      vertex 29.435 2.83266 0
      vertex 18.9617 3.15078 0
      vertex 29.7056 3.44046 0
    endloop
  endfacet
  facet normal 0 0 -1
    outer loop
      vertex 18.5706 3.68903 0
      vertex 29.7056 3.44046 0
      vertex 18.9617 3.15078 0
    endloop
  endfacet
  facet normal 0 0 -1
    outer loop
      vertex 13.4 12.5 0
      vertex 30.2 3.88564 0
      vertex 18.5706 3.68903 0
    endloop
  endfacet
  facet normal 0 0 -1
    outer loop
      vertex 30.2 3.88564 0
      vertex 13.4 12.5 0
      vertex 35.4 12.5 0
    endloop
  endfacet
  facet normal 0 0 -1
    outer loop
      vertex 13.4 12.5 0
      vertex 18.5706 3.68903 0
      vertex 17.9944 4.02169 0
    endloop
  endfacet
  facet normal 0 0 -1
    outer loop
      vertex 13.4 12.5 0
      vertex 17.9944 4.02169 0
      vertex 17.3328 4.09123 0
    endloop
  endfacet
  facet normal 0 0 -1
    outer loop
      vertex 13.4 12.5 0
      vertex 17.3328 4.09123 0
      vertex 16.7 3.88564 0
    endloop
  endfacet
  facet normal 0 0 -1
    outer loop
      vertex 13.4 12.5 0
      vertex 15.935 2.83266 0
      vertex 13.4 -3.5 0
    endloop
  endfacet
  facet normal 0 0 -1
    outer loop
      vertex 13.4 12.5 0
      vertex 16.2056 3.44046 0
      vertex 15.935 2.83266 0
    endloop
  endfacet
  facet normal 0 0 -1
    outer loop
      vertex 13.4 12.5 0
      vertex 16.7 3.88564 0
      vertex 16.2056 3.44046 0
    endloop
  endfacet
  facet normal 0 0 -1
    outer loop
      vertex 35.4 12.5 0
      vertex 13.4 12.5 0
      vertex 38.15 16.5 0
    endloop
  endfacet
  facet normal 0 0 -1
    outer loop
      vertex 10.15 16.5 0
      vertex 13.4 12.5 0
      vertex 10.15 12.5 0
    endloop
  endfacet
  facet normal 0 0 -1
    outer loop
      vertex 13.4 12.5 0
      vertex 10.15 16.5 0
      vertex 38.15 16.5 0
    endloop
  endfacet
  facet normal 1 -0 0
    outer loop
      vertex 35.4 -3.5 4
      vertex 35.4 12.5 0
      vertex 35.4 12.5 4
    endloop
  endfacet
  facet normal 1 0 0
    outer loop
      vertex 35.4 12.5 0
      vertex 35.4 -3.5 4
      vertex 35.4 -3.5 0
    endloop
  endfacet
  facet normal -0.978148 -0.207911 0
    outer loop
      vertex 19.1 2.5 0
      vertex 18.9617 3.15078 4
      vertex 18.9617 3.15078 0
    endloop
  endfacet
  facet normal -0.978148 -0.207911 0
    outer loop
      vertex 18.9617 3.15078 4
      vertex 19.1 2.5 0
      vertex 19.1 2.5 4
    endloop
  endfacet
  facet normal 1 -0 0
    outer loop
      vertex 15.935 2.16734 4
      vertex 15.935 2.83266 0
      vertex 15.935 2.83266 4
    endloop
  endfacet
  facet normal 1 0 0
    outer loop
      vertex 15.935 2.83266 0
      vertex 15.935 2.16734 4
      vertex 15.935 2.16734 0
    endloop
  endfacet
  facet normal -0.104527 -0.994522 0
    outer loop
      vertex 17.3328 4.09123 0
      vertex 17.9944 4.02169 4
      vertex 17.3328 4.09123 4
    endloop
  endfacet
  facet normal -0.104527 -0.994522 -0
    outer loop
      vertex 17.9944 4.02169 4
      vertex 17.3328 4.09123 0
      vertex 17.9944 4.02169 0
    endloop
  endfacet
  facet normal 0.669129 -0.743146 0
    outer loop
      vertex 16.2056 3.44046 0
      vertex 16.7 3.88564 4
      vertex 16.2056 3.44046 4
    endloop
  endfacet
  facet normal 0.669129 -0.743146 0
    outer loop
      vertex 16.7 3.88564 4
      vertex 16.2056 3.44046 0
      vertex 16.7 3.88564 0
    endloop
  endfacet
  facet normal -0.5 0.866025 0
    outer loop
      vertex 18.5706 1.31097 0
      vertex 17.9944 0.978309 4
      vertex 18.5706 1.31097 4
    endloop
  endfacet
  facet normal -0.5 0.866025 0
    outer loop
      vertex 17.9944 0.978309 4
      vertex 18.5706 1.31097 0
      vertex 17.9944 0.978309 0
    endloop
  endfacet
  facet normal -0.104527 0.994522 0
    outer loop
      vertex 17.9944 0.978309 0
      vertex 17.3328 0.908765 4
      vertex 17.9944 0.978309 4
    endloop
  endfacet
  facet normal -0.104527 0.994522 0
    outer loop
      vertex 17.3328 0.908765 4
      vertex 17.9944 0.978309 0
      vertex 17.3328 0.908765 0
    endloop
  endfacet
  facet normal -0.5 -0.866025 0
    outer loop
      vertex 17.9944 4.02169 0
      vertex 18.5706 3.68903 4
      vertex 17.9944 4.02169 4
    endloop
  endfacet
  facet normal -0.5 -0.866025 -0
    outer loop
      vertex 18.5706 3.68903 4
      vertex 17.9944 4.02169 0
      vertex 18.5706 3.68903 0
    endloop
  endfacet
  facet normal -0.809017 -0.587785 0
    outer loop
      vertex 18.9617 3.15078 0
      vertex 18.5706 3.68903 4
      vertex 18.5706 3.68903 0
    endloop
  endfacet
  facet normal -0.809017 -0.587785 0
    outer loop
      vertex 18.5706 3.68903 4
      vertex 18.9617 3.15078 0
      vertex 18.9617 3.15078 4
    endloop
  endfacet
  facet normal 0.309017 -0.951057 0
    outer loop
      vertex 16.7 3.88564 0
      vertex 17.3328 4.09123 4
      vertex 16.7 3.88564 4
    endloop
  endfacet
  facet normal 0.309017 -0.951057 0
    outer loop
      vertex 17.3328 4.09123 4
      vertex 16.7 3.88564 0
      vertex 17.3328 4.09123 0
    endloop
  endfacet
  facet normal 0.913546 0.406736 0
    outer loop
      vertex 16.2056 1.55954 4
      vertex 15.935 2.16734 0
      vertex 15.935 2.16734 4
    endloop
  endfacet
  facet normal 0.913546 0.406736 0
    outer loop
      vertex 15.935 2.16734 0
      vertex 16.2056 1.55954 4
      vertex 16.2056 1.55954 0
    endloop
  endfacet
  facet normal 0.309017 0.951057 -0
    outer loop
      vertex 17.3328 0.908765 0
      vertex 16.7 1.11436 4
      vertex 17.3328 0.908765 4
    endloop
  endfacet
  facet normal 0.309017 0.951057 0
    outer loop
      vertex 16.7 1.11436 4
      vertex 17.3328 0.908765 0
      vertex 16.7 1.11436 0
    endloop
  endfacet
  facet normal 0.669129 0.743146 -0
    outer loop
      vertex 16.7 1.11436 0
      vertex 16.2056 1.55954 4
      vertex 16.7 1.11436 4
    endloop
  endfacet
  facet normal 0.669129 0.743146 0
    outer loop
      vertex 16.2056 1.55954 4
      vertex 16.7 1.11436 0
      vertex 16.2056 1.55954 0
    endloop
  endfacet
  facet normal 0.913546 -0.406736 0
    outer loop
      vertex 15.935 2.83266 4
      vertex 16.2056 3.44046 0
      vertex 16.2056 3.44046 4
    endloop
  endfacet
  facet normal 0.913546 -0.406736 0
    outer loop
      vertex 16.2056 3.44046 0
      vertex 15.935 2.83266 4
      vertex 15.935 2.83266 0
    endloop
  endfacet
  facet normal -0.809017 0.587785 0
    outer loop
      vertex 18.5706 1.31097 0
      vertex 18.9617 1.84922 4
      vertex 18.9617 1.84922 0
    endloop
  endfacet
  facet normal -0.809017 0.587785 0
    outer loop
      vertex 18.9617 1.84922 4
      vertex 18.5706 1.31097 0
      vertex 18.5706 1.31097 4
    endloop
  endfacet
  facet normal -0.978148 0.207911 0
    outer loop
      vertex 18.9617 1.84922 0
      vertex 19.1 2.5 4
      vertex 19.1 2.5 0
    endloop
  endfacet
  facet normal -0.978148 0.207911 0
    outer loop
      vertex 19.1 2.5 4
      vertex 18.9617 1.84922 0
      vertex 18.9617 1.84922 4
    endloop
  endfacet
  facet normal -0.978147 -0.207914 0
    outer loop
      vertex 32.6 2.5 0
      vertex 32.4617 3.15078 4
      vertex 32.4617 3.15078 0
    endloop
  endfacet
  facet normal -0.978147 -0.207914 0
    outer loop
      vertex 32.4617 3.15078 4
      vertex 32.6 2.5 0
      vertex 32.6 2.5 4
    endloop
  endfacet
  facet normal 1 -0 0
    outer loop
      vertex 29.435 2.16734 4
      vertex 29.435 2.83266 0
      vertex 29.435 2.83266 4
    endloop
  endfacet
  facet normal 1 0 0
    outer loop
      vertex 29.435 2.83266 0
      vertex 29.435 2.16734 4
      vertex 29.435 2.16734 0
    endloop
  endfacet
  facet normal -0.104527 -0.994522 0
    outer loop
      vertex 30.8328 4.09123 0
      vertex 31.4944 4.02169 4
      vertex 30.8328 4.09123 4
    endloop
  endfacet
  facet normal -0.104527 -0.994522 -0
    outer loop
      vertex 31.4944 4.02169 4
      vertex 30.8328 4.09123 0
      vertex 31.4944 4.02169 0
    endloop
  endfacet
  facet normal 0.669129 -0.743146 0
    outer loop
      vertex 29.7056 3.44046 0
      vertex 30.2 3.88564 4
      vertex 29.7056 3.44046 4
    endloop
  endfacet
  facet normal 0.669129 -0.743146 0
    outer loop
      vertex 30.2 3.88564 4
      vertex 29.7056 3.44046 0
      vertex 30.2 3.88564 0
    endloop
  endfacet
  facet normal -0.499999 0.866026 0
    outer loop
      vertex 32.0706 1.31097 0
      vertex 31.4944 0.978309 4
      vertex 32.0706 1.31097 4
    endloop
  endfacet
  facet normal -0.499999 0.866026 0
    outer loop
      vertex 31.4944 0.978309 4
      vertex 32.0706 1.31097 0
      vertex 31.4944 0.978309 0
    endloop
  endfacet
  facet normal -0.104527 0.994522 0
    outer loop
      vertex 31.4944 0.978309 0
      vertex 30.8328 0.908765 4
      vertex 31.4944 0.978309 4
    endloop
  endfacet
  facet normal -0.104527 0.994522 0
    outer loop
      vertex 30.8328 0.908765 4
      vertex 31.4944 0.978309 0
      vertex 30.8328 0.908765 0
    endloop
  endfacet
  facet normal -0.499999 -0.866026 0
    outer loop
      vertex 31.4944 4.02169 0
      vertex 32.0706 3.68903 4
      vertex 31.4944 4.02169 4
    endloop
  endfacet
  facet normal -0.499999 -0.866026 -0
    outer loop
      vertex 32.0706 3.68903 4
      vertex 31.4944 4.02169 0
      vertex 32.0706 3.68903 0
    endloop
  endfacet
  facet normal -0.80902 -0.587781 0
    outer loop
      vertex 32.4617 3.15078 0
      vertex 32.0706 3.68903 4
      vertex 32.0706 3.68903 0
    endloop
  endfacet
  facet normal -0.80902 -0.587781 0
    outer loop
      vertex 32.0706 3.68903 4
      vertex 32.4617 3.15078 0
      vertex 32.4617 3.15078 4
    endloop
  endfacet
  facet normal 0.309017 -0.951057 0
    outer loop
      vertex 30.2 3.88564 0
      vertex 30.8328 4.09123 4
      vertex 30.2 3.88564 4
    endloop
  endfacet
  facet normal 0.309017 -0.951057 0
    outer loop
      vertex 30.8328 4.09123 4
      vertex 30.2 3.88564 0
      vertex 30.8328 4.09123 0
    endloop
  endfacet
  facet normal 0.913546 -0.406736 0
    outer loop
      vertex 29.435 2.83266 4
      vertex 29.7056 3.44046 0
      vertex 29.7056 3.44046 4
    endloop
  endfacet
  facet normal 0.913546 -0.406736 0
    outer loop
      vertex 29.7056 3.44046 0
      vertex 29.435 2.83266 4
      vertex 29.435 2.83266 0
    endloop
  endfacet
  facet normal 0.913546 0.406736 0
    outer loop
      vertex 29.7056 1.55954 4
      vertex 29.435 2.16734 0
      vertex 29.435 2.16734 4
    endloop
  endfacet
  facet normal 0.913546 0.406736 0
    outer loop
      vertex 29.435 2.16734 0
      vertex 29.7056 1.55954 4
      vertex 29.7056 1.55954 0
    endloop
  endfacet
  facet normal 0.309017 0.951057 -0
    outer loop
      vertex 30.8328 0.908765 0
      vertex 30.2 1.11436 4
      vertex 30.8328 0.908765 4
    endloop
  endfacet
  facet normal 0.309017 0.951057 0
    outer loop
      vertex 30.2 1.11436 4
      vertex 30.8328 0.908765 0
      vertex 30.2 1.11436 0
    endloop
  endfacet
  facet normal -0.80902 0.587781 0
    outer loop
      vertex 32.0706 1.31097 0
      vertex 32.4617 1.84922 4
      vertex 32.4617 1.84922 0
    endloop
  endfacet
  facet normal -0.80902 0.587781 0
    outer loop
      vertex 32.4617 1.84922 4
      vertex 32.0706 1.31097 0
      vertex 32.0706 1.31097 4
    endloop
  endfacet
  facet normal -0.978147 0.207913 0
    outer loop
      vertex 32.4617 1.84922 0
      vertex 32.6 2.5 4
      vertex 32.6 2.5 0
    endloop
  endfacet
  facet normal -0.978147 0.207913 0
    outer loop
      vertex 32.6 2.5 4
      vertex 32.4617 1.84922 0
      vertex 32.4617 1.84922 4
    endloop
  endfacet
  facet normal 0.669129 0.743146 -0
    outer loop
      vertex 30.2 1.11436 0
      vertex 29.7056 1.55954 4
      vertex 30.2 1.11436 4
    endloop
  endfacet
  facet normal 0.669129 0.743146 0
    outer loop
      vertex 29.7056 1.55954 4
      vertex 30.2 1.11436 0
      vertex 29.7056 1.55954 0
    endloop
  endfacet
  facet normal -0 0 1
    outer loop
      vertex 10.15 16.5 28
      vertex 38.15 12.5 28
      vertex 38.15 16.5 28
    endloop
  endfacet
  facet normal 0 0 1
    outer loop
      vertex 38.15 12.5 28
      vertex 10.15 16.5 28
      vertex 10.15 12.5 28
    endloop
  endfacet
  facet normal -3.40598e-08 -1 2.36716e-07
    outer loop
      vertex 10.15 12.5 28
      vertex 24.25 12.5 26
      vertex 38.15 12.5 28
    endloop
  endfacet
  facet normal -4.1622e-07 -1 -2.45751e-06
    outer loop
      vertex 10.15 12.5 28
      vertex 22.6857 12.5 25.8769
      vertex 24.25 12.5 26
    endloop
  endfacet
  facet normal 0 -1 0
    outer loop
      vertex 10.15 12.5 28
      vertex 21.1598 12.5 25.5106
      vertex 22.6857 12.5 25.8769
    endloop
  endfacet
  facet normal 0 -1 0
    outer loop
      vertex 10.15 12.5 28
      vertex 19.7101 12.5 24.9101
      vertex 21.1598 12.5 25.5106
    endloop
  endfacet
  facet normal 0 -1 0
    outer loop
      vertex 10.15 12.5 28
      vertex 18.3721 12.5 24.0902
      vertex 19.7101 12.5 24.9101
    endloop
  endfacet
  facet normal 0 -1 0
    outer loop
      vertex 10.15 12.5 28
      vertex 17.1789 12.5 23.0711
      vertex 18.3721 12.5 24.0902
    endloop
  endfacet
  facet normal 0 -1 0
    outer loop
      vertex 10.15 12.5 28
      vertex 16.1598 12.5 21.8779
      vertex 17.1789 12.5 23.0711
    endloop
  endfacet
  facet normal 0 -1 0
    outer loop
      vertex 10.15 12.5 28
      vertex 15.3399 12.5 20.5399
      vertex 16.1598 12.5 21.8779
    endloop
  endfacet
  facet normal 0 -1 0
    outer loop
      vertex 10.15 12.5 28
      vertex 14.7394 12.5 19.0902
      vertex 15.3399 12.5 20.5399
    endloop
  endfacet
  facet normal 0 -1 0
    outer loop
      vertex 10.15 12.5 28
      vertex 14.3731 12.5 17.5643
      vertex 14.7394 12.5 19.0902
    endloop
  endfacet
  facet normal 0 -1 0
    outer loop
      vertex 10.15 12.5 28
      vertex 14.25 12.5 16
      vertex 14.3731 12.5 17.5643
    endloop
  endfacet
  facet normal 0 -1 0
    outer loop
      vertex 10.15 12.5 0
      vertex 14.25 12.5 16
      vertex 10.15 12.5 28
    endloop
  endfacet
  facet normal 0 -1 -0
    outer loop
      vertex 14.25 12.5 16
      vertex 10.15 12.5 0
      vertex 14.3731 12.5 14.4357
    endloop
  endfacet
  facet normal -4.53525e-07 -1 1.98353e-06
    outer loop
      vertex 22.6857 12.5 6.12312
      vertex 13.4 12.5 4
      vertex 24.25 12.5 6
    endloop
  endfacet
  facet normal 0 -1 -0
    outer loop
      vertex 21.1598 12.5 6.48943
      vertex 13.4 12.5 4
      vertex 22.6857 12.5 6.12312
    endloop
  endfacet
  facet normal 0 -1 -0
    outer loop
      vertex 19.7101 12.5 7.08993
      vertex 13.4 12.5 4
      vertex 21.1598 12.5 6.48943
    endloop
  endfacet
  facet normal 0 -1 -0
    outer loop
      vertex 18.3721 12.5 7.90983
      vertex 13.4 12.5 4
      vertex 19.7101 12.5 7.08993
    endloop
  endfacet
  facet normal 0 -1 -0
    outer loop
      vertex 17.1789 12.5 8.92893
      vertex 13.4 12.5 4
      vertex 18.3721 12.5 7.90983
    endloop
  endfacet
  facet normal 0 -1 -0
    outer loop
      vertex 16.1598 12.5 10.1221
      vertex 13.4 12.5 4
      vertex 17.1789 12.5 8.92893
    endloop
  endfacet
  facet normal 0 -1 -0
    outer loop
      vertex 15.3399 12.5 11.4601
      vertex 13.4 12.5 4
      vertex 16.1598 12.5 10.1221
    endloop
  endfacet
  facet normal 0 -1 -0
    outer loop
      vertex 14.7394 12.5 12.9098
      vertex 13.4 12.5 4
      vertex 15.3399 12.5 11.4601
    endloop
  endfacet
  facet normal 0 -1 -0
    outer loop
      vertex 14.3731 12.5 14.4357
      vertex 10.15 12.5 0
      vertex 14.7394 12.5 12.9098
    endloop
  endfacet
  facet normal 0 -1 0
    outer loop
      vertex 14.7394 12.5 12.9098
      vertex 10.15 12.5 0
      vertex 13.4 12.5 4
    endloop
  endfacet
  facet normal 0 -1 -0
    outer loop
      vertex 13.4 12.5 4
      vertex 10.15 12.5 0
      vertex 13.4 12.5 0
    endloop
  endfacet
  facet normal 0 -1 0
    outer loop
      vertex 25.8143 12.5 25.8769
      vertex 38.15 12.5 28
      vertex 24.25 12.5 26
    endloop
  endfacet
  facet normal 0 -1 0
    outer loop
      vertex 27.3402 12.5 25.5106
      vertex 38.15 12.5 28
      vertex 25.8143 12.5 25.8769
    endloop
  endfacet
  facet normal 0 -1 0
    outer loop
      vertex 28.7899 12.5 24.9101
      vertex 38.15 12.5 28
      vertex 27.3402 12.5 25.5106
    endloop
  endfacet
  facet normal 0 -1 0
    outer loop
      vertex 30.1279 12.5 24.0902
      vertex 38.15 12.5 28
      vertex 28.7899 12.5 24.9101
    endloop
  endfacet
  facet normal 0 -1 0
    outer loop
      vertex 31.3211 12.5 23.0711
      vertex 38.15 12.5 28
      vertex 30.1279 12.5 24.0902
    endloop
  endfacet
  facet normal 0 -1 0
    outer loop
      vertex 32.3402 12.5 21.8779
      vertex 38.15 12.5 28
      vertex 31.3211 12.5 23.0711
    endloop
  endfacet
  facet normal 0 -1 0
    outer loop
      vertex 33.1601 12.5 20.5399
      vertex 38.15 12.5 28
      vertex 32.3402 12.5 21.8779
    endloop
  endfacet
  facet normal 0 -1 0
    outer loop
      vertex 33.7606 12.5 19.0902
      vertex 38.15 12.5 28
      vertex 33.1601 12.5 20.5399
    endloop
  endfacet
  facet normal 0 -1 0
    outer loop
      vertex 34.1269 12.5 17.5643
      vertex 38.15 12.5 28
      vertex 33.7606 12.5 19.0902
    endloop
  endfacet
  facet normal 0 -1 0
    outer loop
      vertex 34.25 12.5 16
      vertex 38.15 12.5 28
      vertex 34.1269 12.5 17.5643
    endloop
  endfacet
  facet normal 0 -1 0
    outer loop
      vertex 38.15 12.5 0
      vertex 34.25 12.5 16
      vertex 34.1269 12.5 14.4357
    endloop
  endfacet
  facet normal 0 -1 0
    outer loop
      vertex 35.4 12.5 4
      vertex 34.1269 12.5 14.4357
      vertex 33.7606 12.5 12.9098
    endloop
  endfacet
  facet normal -4.33488e-08 -1 -2.4167e-07
    outer loop
      vertex 35.4 12.5 4
      vertex 24.25 12.5 6
      vertex 13.4 12.5 4
    endloop
  endfacet
  facet normal 0 -1 0
    outer loop
      vertex 24.25 12.5 6
      vertex 35.4 12.5 4
      vertex 25.8143 12.5 6.12312
    endloop
  endfacet
  facet normal 0 -1 0
    outer loop
      vertex 35.4 12.5 4
      vertex 27.3402 12.5 6.48943
      vertex 25.8143 12.5 6.12312
    endloop
  endfacet
  facet normal 0 -1 0
    outer loop
      vertex 35.4 12.5 4
      vertex 28.7899 12.5 7.08993
      vertex 27.3402 12.5 6.48943
    endloop
  endfacet
  facet normal 0 -1 0
    outer loop
      vertex 35.4 12.5 4
      vertex 30.1279 12.5 7.90983
      vertex 28.7899 12.5 7.08993
    endloop
  endfacet
  facet normal 0 -1 0
    outer loop
      vertex 35.4 12.5 4
      vertex 31.3211 12.5 8.92893
      vertex 30.1279 12.5 7.90983
    endloop
  endfacet
  facet normal 0 -1 0
    outer loop
      vertex 35.4 12.5 4
      vertex 32.3402 12.5 10.1221
      vertex 31.3211 12.5 8.92893
    endloop
  endfacet
  facet normal 0 -1 0
    outer loop
      vertex 35.4 12.5 4
      vertex 33.1601 12.5 11.4601
      vertex 32.3402 12.5 10.1221
    endloop
  endfacet
  facet normal 0 -1 0
    outer loop
      vertex 35.4 12.5 4
      vertex 33.7606 12.5 12.9098
      vertex 33.1601 12.5 11.4601
    endloop
  endfacet
  facet normal 0 -1 0
    outer loop
      vertex 34.1269 12.5 14.4357
      vertex 35.4 12.5 4
      vertex 38.15 12.5 0
    endloop
  endfacet
  facet normal 0 -1 0
    outer loop
      vertex 38.15 12.5 0
      vertex 35.4 12.5 4
      vertex 35.4 12.5 0
    endloop
  endfacet
  facet normal 0 -1 0
    outer loop
      vertex 34.25 12.5 16
      vertex 38.15 12.5 0
      vertex 38.15 12.5 28
    endloop
  endfacet
  facet normal 1 -0 0
    outer loop
      vertex 38.15 12.5 28
      vertex 38.15 16.5 0
      vertex 38.15 16.5 28
    endloop
  endfacet
  facet normal 1 0 0
    outer loop
      vertex 38.15 16.5 0
      vertex 38.15 12.5 28
      vertex 38.15 12.5 0
    endloop
  endfacet
  facet normal -1 0 0
    outer loop
      vertex 10.15 12.5 0
      vertex 10.15 16.5 28
      vertex 10.15 16.5 0
    endloop
  endfacet
  facet normal -1 -0 0
    outer loop
      vertex 10.15 16.5 28
      vertex 10.15 12.5 0
      vertex 10.15 12.5 28
    endloop
  endfacet
  facet normal -0.996917 0 -0.0784584
    outer loop
      vertex 34.25 12.5 16
      vertex 34.1269 16.5 17.5643
      vertex 34.25 16.5 16
    endloop
  endfacet
  facet normal -0.996917 -0 -0.0784584
    outer loop
      vertex 34.1269 16.5 17.5643
      vertex 34.25 12.5 16
      vertex 34.1269 12.5 17.5643
    endloop
  endfacet
  facet normal -0.522498 0 -0.85264
    outer loop
      vertex 28.7899 12.5 24.9101
      vertex 30.1279 16.5 24.0902
      vertex 30.1279 12.5 24.0902
    endloop
  endfacet
  facet normal -0.522498 0 -0.85264
    outer loop
      vertex 30.1279 16.5 24.0902
      vertex 28.7899 12.5 24.9101
      vertex 28.7899 16.5 24.9101
    endloop
  endfacet
  facet normal 0.996917 -0 0.0784596
    outer loop
      vertex 14.25 12.5 16
      vertex 14.3731 16.5 14.4357
      vertex 14.25 16.5 16
    endloop
  endfacet
  facet normal 0.996917 0 0.0784596
    outer loop
      vertex 14.3731 16.5 14.4357
      vertex 14.25 12.5 16
      vertex 14.3731 12.5 14.4357
    endloop
  endfacet
  facet normal -0.0784589 0 0.996917
    outer loop
      vertex 24.25 16.5 6
      vertex 25.8143 12.5 6.12312
      vertex 25.8143 16.5 6.12312
    endloop
  endfacet
  facet normal -0.0784589 0 0.996917
    outer loop
      vertex 25.8143 12.5 6.12312
      vertex 24.25 16.5 6
      vertex 24.25 12.5 6
    endloop
  endfacet
  facet normal -0.649448 0 -0.760406
    outer loop
      vertex 30.1279 12.5 24.0902
      vertex 31.3211 16.5 23.0711
      vertex 31.3211 12.5 23.0711
    endloop
  endfacet
  facet normal -0.649448 0 -0.760406
    outer loop
      vertex 31.3211 16.5 23.0711
      vertex 30.1279 12.5 24.0902
      vertex 30.1279 16.5 24.0902
    endloop
  endfacet
  facet normal -0.382684 0 -0.923879
    outer loop
      vertex 27.3402 12.5 25.5106
      vertex 28.7899 16.5 24.9101
      vertex 28.7899 12.5 24.9101
    endloop
  endfacet
  facet normal -0.382684 0 -0.923879
    outer loop
      vertex 28.7899 16.5 24.9101
      vertex 27.3402 12.5 25.5106
      vertex 27.3402 16.5 25.5106
    endloop
  endfacet
  facet normal 0.0784596 0 -0.996917
    outer loop
      vertex 22.6857 12.5 25.8769
      vertex 24.25 16.5 26
      vertex 24.25 12.5 26
    endloop
  endfacet
  facet normal 0.0784596 0 -0.996917
    outer loop
      vertex 24.25 16.5 26
      vertex 22.6857 12.5 25.8769
      vertex 22.6857 16.5 25.8769
    endloop
  endfacet
  facet normal 0.382683 0 -0.92388
    outer loop
      vertex 19.7101 12.5 24.9101
      vertex 21.1598 16.5 25.5106
      vertex 21.1598 12.5 25.5106
    endloop
  endfacet
  facet normal 0.382683 0 -0.92388
    outer loop
      vertex 21.1598 16.5 25.5106
      vertex 19.7101 12.5 24.9101
      vertex 19.7101 16.5 24.9101
    endloop
  endfacet
  facet normal -0.852641 0 0.522497
    outer loop
      vertex 32.3402 12.5 10.1221
      vertex 33.1601 16.5 11.4601
      vertex 32.3402 16.5 10.1221
    endloop
  endfacet
  facet normal -0.852641 0 0.522497
    outer loop
      vertex 33.1601 16.5 11.4601
      vertex 32.3402 12.5 10.1221
      vertex 33.1601 12.5 11.4601
    endloop
  endfacet
  facet normal 0.522498 0 0.85264
    outer loop
      vertex 18.3721 16.5 7.90983
      vertex 19.7101 12.5 7.08993
      vertex 19.7101 16.5 7.08993
    endloop
  endfacet
  facet normal 0.522498 0 0.85264
    outer loop
      vertex 19.7101 12.5 7.08993
      vertex 18.3721 16.5 7.90983
      vertex 18.3721 12.5 7.90983
    endloop
  endfacet
  facet normal -0.760405 0 -0.649449
    outer loop
      vertex 32.3402 12.5 21.8779
      vertex 31.3211 16.5 23.0711
      vertex 32.3402 16.5 21.8779
    endloop
  endfacet
  facet normal -0.760405 -0 -0.649449
    outer loop
      vertex 31.3211 16.5 23.0711
      vertex 32.3402 12.5 21.8779
      vertex 31.3211 12.5 23.0711
    endloop
  endfacet
  facet normal -0.97237 0 -0.233445
    outer loop
      vertex 34.1269 12.5 17.5643
      vertex 33.7606 16.5 19.0902
      vertex 34.1269 16.5 17.5643
    endloop
  endfacet
  facet normal -0.97237 -0 -0.233445
    outer loop
      vertex 33.7606 16.5 19.0902
      vertex 34.1269 12.5 17.5643
      vertex 33.7606 12.5 19.0902
    endloop
  endfacet
  facet normal -0.233445 0 -0.97237
    outer loop
      vertex 25.8143 12.5 25.8769
      vertex 27.3402 16.5 25.5106
      vertex 27.3402 12.5 25.5106
    endloop
  endfacet
  facet normal -0.233445 0 -0.97237
    outer loop
      vertex 27.3402 16.5 25.5106
      vertex 25.8143 12.5 25.8769
      vertex 25.8143 16.5 25.8769
    endloop
  endfacet
  facet normal -0.0784596 0 -0.996917
    outer loop
      vertex 24.25 12.5 26
      vertex 25.8143 16.5 25.8769
      vertex 25.8143 12.5 25.8769
    endloop
  endfacet
  facet normal -0.0784596 0 -0.996917
    outer loop
      vertex 25.8143 16.5 25.8769
      vertex 24.25 12.5 26
      vertex 24.25 16.5 26
    endloop
  endfacet
  facet normal 0.97237 0 -0.233445
    outer loop
      vertex 14.7394 12.5 19.0902
      vertex 14.3731 16.5 17.5643
      vertex 14.7394 16.5 19.0902
    endloop
  endfacet
  facet normal 0.97237 0 -0.233445
    outer loop
      vertex 14.3731 16.5 17.5643
      vertex 14.7394 12.5 19.0902
      vertex 14.3731 12.5 17.5643
    endloop
  endfacet
  facet normal -0.97237 0 0.233445
    outer loop
      vertex 33.7606 12.5 12.9098
      vertex 34.1269 16.5 14.4357
      vertex 33.7606 16.5 12.9098
    endloop
  endfacet
  facet normal -0.97237 0 0.233445
    outer loop
      vertex 34.1269 16.5 14.4357
      vertex 33.7606 12.5 12.9098
      vertex 34.1269 12.5 14.4357
    endloop
  endfacet
  facet normal -0.233445 0 0.97237
    outer loop
      vertex 25.8143 16.5 6.12312
      vertex 27.3402 12.5 6.48943
      vertex 27.3402 16.5 6.48943
    endloop
  endfacet
  facet normal -0.233445 0 0.97237
    outer loop
      vertex 27.3402 12.5 6.48943
      vertex 25.8143 16.5 6.12312
      vertex 25.8143 12.5 6.12312
    endloop
  endfacet
  facet normal -0.923879 0 0.382685
    outer loop
      vertex 33.1601 12.5 11.4601
      vertex 33.7606 16.5 12.9098
      vertex 33.1601 16.5 11.4601
    endloop
  endfacet
  facet normal -0.923879 0 0.382685
    outer loop
      vertex 33.7606 16.5 12.9098
      vertex 33.1601 12.5 11.4601
      vertex 33.7606 12.5 12.9098
    endloop
  endfacet
  facet normal 0.233445 0 0.97237
    outer loop
      vertex 21.1598 16.5 6.48943
      vertex 22.6857 12.5 6.12312
      vertex 22.6857 16.5 6.12312
    endloop
  endfacet
  facet normal 0.233445 0 0.97237
    outer loop
      vertex 22.6857 12.5 6.12312
      vertex 21.1598 16.5 6.48943
      vertex 21.1598 12.5 6.48943
    endloop
  endfacet
  facet normal 0.382683 0 0.92388
    outer loop
      vertex 19.7101 16.5 7.08993
      vertex 21.1598 12.5 6.48943
      vertex 21.1598 16.5 6.48943
    endloop
  endfacet
  facet normal 0.382683 0 0.92388
    outer loop
      vertex 21.1598 12.5 6.48943
      vertex 19.7101 16.5 7.08993
      vertex 19.7101 12.5 7.08993
    endloop
  endfacet
  facet normal 0.760406 -0 0.649448
    outer loop
      vertex 16.1598 12.5 10.1221
      vertex 17.1789 16.5 8.92893
      vertex 16.1598 16.5 10.1221
    endloop
  endfacet
  facet normal 0.760406 0 0.649448
    outer loop
      vertex 17.1789 16.5 8.92893
      vertex 16.1598 12.5 10.1221
      vertex 17.1789 12.5 8.92893
    endloop
  endfacet
  facet normal 0.649448 0 0.760406
    outer loop
      vertex 17.1789 16.5 8.92893
      vertex 18.3721 12.5 7.90983
      vertex 18.3721 16.5 7.90983
    endloop
  endfacet
  facet normal 0.649448 0 0.760406
    outer loop
      vertex 18.3721 12.5 7.90983
      vertex 17.1789 16.5 8.92893
      vertex 17.1789 12.5 8.92893
    endloop
  endfacet
  facet normal 0.97237 -0 0.233445
    outer loop
      vertex 14.3731 12.5 14.4357
      vertex 14.7394 16.5 12.9098
      vertex 14.3731 16.5 14.4357
    endloop
  endfacet
  facet normal 0.97237 0 0.233445
    outer loop
      vertex 14.7394 16.5 12.9098
      vertex 14.3731 12.5 14.4357
      vertex 14.7394 12.5 12.9098
    endloop
  endfacet
  facet normal -0.923879 0 -0.382684
    outer loop
      vertex 33.7606 12.5 19.0902
      vertex 33.1601 16.5 20.5399
      vertex 33.7606 16.5 19.0902
    endloop
  endfacet
  facet normal -0.923879 -0 -0.382684
    outer loop
      vertex 33.1601 16.5 20.5399
      vertex 33.7606 12.5 19.0902
      vertex 33.1601 12.5 20.5399
    endloop
  endfacet
  facet normal -0.852641 0 -0.522497
    outer loop
      vertex 33.1601 12.5 20.5399
      vertex 32.3402 16.5 21.8779
      vertex 33.1601 16.5 20.5399
    endloop
  endfacet
  facet normal -0.852641 -0 -0.522497
    outer loop
      vertex 32.3402 16.5 21.8779
      vertex 33.1601 12.5 20.5399
      vertex 32.3402 12.5 21.8779
    endloop
  endfacet
  facet normal 0.996917 0 -0.0784596
    outer loop
      vertex 14.3731 12.5 17.5643
      vertex 14.25 16.5 16
      vertex 14.3731 16.5 17.5643
    endloop
  endfacet
  facet normal 0.996917 0 -0.0784596
    outer loop
      vertex 14.25 16.5 16
      vertex 14.3731 12.5 17.5643
      vertex 14.25 12.5 16
    endloop
  endfacet
  facet normal 0.92388 0 -0.382683
    outer loop
      vertex 15.3399 12.5 20.5399
      vertex 14.7394 16.5 19.0902
      vertex 15.3399 16.5 20.5399
    endloop
  endfacet
  facet normal 0.92388 0 -0.382683
    outer loop
      vertex 14.7394 16.5 19.0902
      vertex 15.3399 12.5 20.5399
      vertex 14.7394 12.5 19.0902
    endloop
  endfacet
  facet normal 0.760406 0 -0.649448
    outer loop
      vertex 17.1789 12.5 23.0711
      vertex 16.1598 16.5 21.8779
      vertex 17.1789 16.5 23.0711
    endloop
  endfacet
  facet normal 0.760406 0 -0.649448
    outer loop
      vertex 16.1598 16.5 21.8779
      vertex 17.1789 12.5 23.0711
      vertex 16.1598 12.5 21.8779
    endloop
  endfacet
  facet normal -0.649448 0 0.760406
    outer loop
      vertex 30.1279 16.5 7.90983
      vertex 31.3211 12.5 8.92893
      vertex 31.3211 16.5 8.92893
    endloop
  endfacet
  facet normal -0.649448 0 0.760406
    outer loop
      vertex 31.3211 12.5 8.92893
      vertex 30.1279 16.5 7.90983
      vertex 30.1279 12.5 7.90983
    endloop
  endfacet
  facet normal -0.760405 0 0.649449
    outer loop
      vertex 31.3211 12.5 8.92893
      vertex 32.3402 16.5 10.1221
      vertex 31.3211 16.5 8.92893
    endloop
  endfacet
  facet normal -0.760405 0 0.649449
    outer loop
      vertex 32.3402 16.5 10.1221
      vertex 31.3211 12.5 8.92893
      vertex 32.3402 12.5 10.1221
    endloop
  endfacet
  facet normal -0.996917 0 0.0784584
    outer loop
      vertex 34.1269 12.5 14.4357
      vertex 34.25 16.5 16
      vertex 34.1269 16.5 14.4357
    endloop
  endfacet
  facet normal -0.996917 0 0.0784584
    outer loop
      vertex 34.25 16.5 16
      vertex 34.1269 12.5 14.4357
      vertex 34.25 12.5 16
    endloop
  endfacet
  facet normal -0.382684 0 0.923879
    outer loop
      vertex 27.3402 16.5 6.48943
      vertex 28.7899 12.5 7.08993
      vertex 28.7899 16.5 7.08993
    endloop
  endfacet
  facet normal -0.382684 0 0.923879
    outer loop
      vertex 28.7899 12.5 7.08993
      vertex 27.3402 16.5 6.48943
      vertex 27.3402 12.5 6.48943
    endloop
  endfacet
  facet normal -0.522498 0 0.85264
    outer loop
      vertex 28.7899 16.5 7.08993
      vertex 30.1279 12.5 7.90983
      vertex 30.1279 16.5 7.90983
    endloop
  endfacet
  facet normal -0.522498 0 0.85264
    outer loop
      vertex 30.1279 12.5 7.90983
      vertex 28.7899 16.5 7.08993
      vertex 28.7899 12.5 7.08993
    endloop
  endfacet
  facet normal 0.078459 0 0.996917
    outer loop
      vertex 22.6857 16.5 6.12312
      vertex 24.25 12.5 6
      vertex 24.25 16.5 6
    endloop
  endfacet
  facet normal 0.078459 0 0.996917
    outer loop
      vertex 24.25 12.5 6
      vertex 22.6857 16.5 6.12312
      vertex 22.6857 12.5 6.12312
    endloop
  endfacet
  facet normal 0.923879 -0 0.382684
    outer loop
      vertex 14.7394 12.5 12.9098
      vertex 15.3399 16.5 11.4601
      vertex 14.7394 16.5 12.9098
    endloop
  endfacet
  facet normal 0.923879 0 0.382684
    outer loop
      vertex 15.3399 16.5 11.4601
      vertex 14.7394 12.5 12.9098
      vertex 15.3399 12.5 11.4601
    endloop
  endfacet
  facet normal 0.85264 -0 0.522498
    outer loop
      vertex 15.3399 12.5 11.4601
      vertex 16.1598 16.5 10.1221
      vertex 15.3399 16.5 11.4601
    endloop
  endfacet
  facet normal 0.85264 0 0.522498
    outer loop
      vertex 16.1598 16.5 10.1221
      vertex 15.3399 12.5 11.4601
      vertex 16.1598 12.5 10.1221
    endloop
  endfacet
  facet normal 0.85264 0 -0.522498
    outer loop
      vertex 16.1598 12.5 21.8779
      vertex 15.3399 16.5 20.5399
      vertex 16.1598 16.5 21.8779
    endloop
  endfacet
  facet normal 0.85264 0 -0.522498
    outer loop
      vertex 15.3399 16.5 20.5399
      vertex 16.1598 12.5 21.8779
      vertex 15.3399 12.5 20.5399
    endloop
  endfacet
  facet normal 0.233445 0 -0.97237
    outer loop
      vertex 21.1598 12.5 25.5106
      vertex 22.6857 16.5 25.8769
      vertex 22.6857 12.5 25.8769
    endloop
  endfacet
  facet normal 0.233445 0 -0.97237
    outer loop
      vertex 22.6857 16.5 25.8769
      vertex 21.1598 12.5 25.5106
      vertex 21.1598 16.5 25.5106
    endloop
  endfacet
  facet normal 0.522498 0 -0.85264
    outer loop
      vertex 18.3721 12.5 24.0902
      vertex 19.7101 16.5 24.9101
      vertex 19.7101 12.5 24.9101
    endloop
  endfacet
  facet normal 0.522498 0 -0.85264
    outer loop
      vertex 19.7101 16.5 24.9101
      vertex 18.3721 12.5 24.0902
      vertex 18.3721 16.5 24.0902
    endloop
  endfacet
  facet normal 0.649448 0 -0.760406
    outer loop
      vertex 17.1789 12.5 23.0711
      vertex 18.3721 16.5 24.0902
      vertex 18.3721 12.5 24.0902
    endloop
  endfacet
  facet normal 0.649448 0 -0.760406
    outer loop
      vertex 18.3721 16.5 24.0902
      vertex 17.1789 12.5 23.0711
      vertex 17.1789 16.5 23.0711
    endloop
  endfacet
endsolid OpenSCAD_Model
